<?xml version="1.0" encoding="utf-8"?>
<!-- Generator: Adobe Illustrator 21.0.0, SVG Export Plug-In . SVG Version: 6.00 Build 0)  -->
<svg version="1.1" id="Layer_1" xmlns="http://www.w3.org/2000/svg" xmlns:xlink="http://www.w3.org/1999/xlink" x="0px" y="0px"
	 viewBox="0 0 1400 980" style="enable-background:new 0 0 1400 980;" xml:space="preserve">
<style type="text/css">
	.st0{fill:#FAAF42;}
	.st1{fill:#C0BEBE;}
	.st2{fill:#3FB3D4;}
	.st3{fill:#FFFFFF;}
	.st4{fill:#F1F2F4;}
	.st5{opacity:0.43;}
</style>
<g>
	<rect x="37.2" y="557.9" class="st0" width="377.3" height="255"/>
	<circle class="st1" cx="1294.3" cy="316.6" r="52"/>
	<path d="M1166.5,321.3h-10V176.9c0-8.9-7.3-16.2-16.2-16.2h-9v-10h9c14.4,0,26.2,11.7,26.2,26.2V321.3z"/>
	<path d="M1016.7,321.3h-10V176.9c0-14.4,11.7-26.2,26.2-26.2h10.2v10h-10.2c-8.9,0-16.2,7.3-16.2,16.2V321.3z"/>
	<path d="M1056.4,176.7h-7.5c-6.4,0-11.5-5.2-11.5-11.5v-18.5c0-6.4,5.2-11.5,11.5-11.5h7.5c9.2,0,16.7,7.5,16.7,16.7v8.1
		C1073.1,169.2,1065.6,176.7,1056.4,176.7z M1048.9,145.1c-0.8,0-1.5,0.7-1.5,1.5v18.5c0,0.8,0.7,1.5,1.5,1.5h7.5
		c3.7,0,6.7-3,6.7-6.7v-8.1c0-3.7-3-6.7-6.7-6.7H1048.9z"/>
	<path d="M1124.6,176.7h-7.5c-9.2,0-16.7-7.5-16.7-16.7v-8.1c0-9.2,7.5-16.7,16.7-16.7h7.5c6.4,0,11.5,5.2,11.5,11.5v18.5
		C1136.1,171.6,1131,176.7,1124.6,176.7z M1117.1,145.1c-3.7,0-6.7,3-6.7,6.7v8.1c0,3.7,3,6.7,6.7,6.7h7.5c0.8,0,1.5-0.7,1.5-1.5
		v-18.5c0-0.8-0.7-1.5-1.5-1.5H1117.1z"/>
	<path class="st2" d="M1285.3,369.7v153.6c0,51-41.5,92.5-92.5,92.5c-51,0-92.5-41.5-92.5-92.5V414.6c39.4-6.3,69.7-40.5,69.7-81.7
		v-73.2h-15.8v73.2c0,36.9-29.9,66.9-66.9,66.9l0,0c-36.9,0-66.9-29.9-66.9-66.9v-73.2h-15.8v73.2c0,43.8,34.2,79.7,77.3,82.5v107.9
		c0,61.1,49.7,110.8,110.8,110.8c61.1,0,110.8-49.7,110.8-110.8V369.7H1285.3z"/>
	<g>
		
			<rect x="530.3" y="247.3" transform="matrix(0.9999 1.126064e-02 -1.126064e-02 0.9999 5.4949 -8.1261)" class="st0" width="388.1" height="473.2"/>
		<path d="M920.7,727.7l-398.1-4.5l5.4-483.2l398.1,4.5l-0.1,5L920.7,727.7z M532.7,713.3l378.1,4.3l5.2-463.2l-378.1-4.3
			L532.7,713.3z"/>
		<g>
			
				<rect x="558.8" y="261.8" transform="matrix(0.9999 1.126064e-02 -1.126064e-02 0.9999 5.3816 -8.128)" class="st3" width="331.3" height="424"/>
			<path d="M892.7,692.8l-341.2-3.8l4.9-434l341.2,3.8l-0.1,5L892.7,692.8z M561.5,679l321.2,3.6l4.7-414L566.2,265L561.5,679z"/>
		</g>
		<g>
			<path class="st1" d="M812.1,228.6l-43.2-0.5c0-0.5,0-1,0.1-1.5c0.3-23.1-18.2-42-41.3-42.2c-23.1-0.3-42,18.2-42.2,41.3
				c0,0.5,0,1,0,1.5l-43.2-0.5c-18.6-0.2-33.8,14.7-34,33.3l-0.1,10.8c-0.1,7.7,6.1,14,13.8,14.1l209.2,2.4
				c7.7,0.1,14-6.1,14.1-13.8l0.1-10.8C845.6,244.1,830.7,228.8,812.1,228.6z M727,245.4c-10.2-0.1-18.3-8.4-18.2-18.6
				c0.1-10.2,8.4-18.3,18.6-18.2c10.2,0.1,18.3,8.4,18.2,18.6C745.5,237.4,737.2,245.5,727,245.4z"/>
			<path d="M831.3,292.2c-0.1,0-0.1,0-0.2,0l-209.2-2.4c-5.1-0.1-9.8-2.1-13.3-5.7c-3.5-3.6-5.5-8.4-5.4-13.5l0.1-10.8
				c0.2-21.3,17.7-38.5,39.1-38.2l38.3,0.4c1-11.2,5.8-21.5,13.9-29.4c8.8-8.6,20.4-13.3,32.7-13.3c0.2,0,0.4,0,0.5,0
				c12.5,0.1,24.2,5.1,32.9,14.1c7.9,8.1,12.5,18.5,13.2,29.7l38.3,0.4c21.3,0.2,38.4,17.8,38.2,39.1l-0.1,10.8
				C850.2,283.8,841.7,292.2,831.3,292.2z M642,231.7c-15.6,0-28.5,12.6-28.6,28.3l-0.1,10.8c0,2.4,0.9,4.6,2.5,6.4
				c1.7,1.7,3.9,2.7,6.3,2.7l209.2,2.4c0,0,0.1,0,0.1,0c4.9,0,8.9-3.9,8.9-8.8l0.1-10.8c0.2-15.8-12.5-28.8-28.3-29l-48.3-0.5
				l0.2-5.4c0-0.4,0-0.7,0-1.1c0.1-9.8-3.6-19.1-10.5-26.1c-6.9-7-16.1-11-25.9-11.1c-0.1,0-0.3,0-0.4,0c-9.7,0-18.8,3.7-25.7,10.5
				c-7,6.9-11,16.1-11.1,25.9c0,0.4,0,0.7,0,1.1l0.1,5.4l-48.3-0.5C642.2,231.7,642.1,231.7,642,231.7z"/>
			<g>
				
					<ellipse transform="matrix(1.126064e-02 -0.9999 0.9999 1.126064e-02 492.0808 951.6486)" class="st3" cx="727.3" cy="227" rx="18.4" ry="18.4"/>
				<path d="M727.3,250.4c-0.1,0-0.2,0-0.3,0c-12.9-0.1-23.3-10.8-23.1-23.6c0.1-12.8,10.6-23.1,23.4-23.1c0.1,0,0.2,0,0.3,0
					c12.9,0.1,23.3,10.8,23.1,23.6c-0.1,6.2-2.6,12.1-7,16.5C739.2,248,733.4,250.4,727.3,250.4z M727.3,213.6
					c-7.3,0-13.3,5.9-13.4,13.2c-0.1,7.4,5.9,13.5,13.2,13.5c0.1,0,0.1,0,0.2,0c3.5,0,6.8-1.4,9.4-3.8c2.6-2.5,4-5.8,4-9.4
					c0.1-7.4-5.9-13.5-13.2-13.5C727.4,213.6,727.3,213.6,727.3,213.6z"/>
			</g>
		</g>
		<g>
			<path d="M591,382.4l0.8-74.5l16.6,0.2c11.2,0.1,16.4,0.7,21.5,2.5c8.2,2.8,13.2,10.8,13.1,21c-0.1,10.3-5.6,18.2-14.2,20.7
				c-4.4,1.1-9.6,1.5-19.5,1.4l-6.3-0.1l-0.3,29.1L591,382.4z M603,344l6.4,0.1c8.6,0.1,10.9-0.1,14.1-1.2c4.5-1.6,7.3-6,7.4-11.6
				c0.1-5.2-2.1-9.4-6-11.6l-0.1,0c-3.2-1.6-6.6-2.1-14.5-2.2l-7.1-0.1L603,344z"/>
			<polygon points="665.3,360.9 650.3,360.8 637.4,381.9 620.4,350.1 605.5,350 629.6,393.4 607.8,428.9 622.8,429 637.1,405.5 
				650.8,429.4 665.8,429.5 644.9,393.6 			"/>
		</g>
		<g>
			<line class="st3" x1="602.6" y1="458.8" x2="832.9" y2="461.4"/>
			
				<rect x="712.7" y="345" transform="matrix(1.126228e-02 -0.9999 0.9999 1.126228e-02 249.5659 1172.6187)" width="10" height="230.3"/>
		</g>
		<g>
			<line class="st3" x1="694.2" y1="319.5" x2="836.4" y2="321.1"/>
			
				<rect x="760.3" y="249.2" transform="matrix(1.126247e-02 -0.9999 0.9999 1.126247e-02 436.3483 1081.9459)" width="10" height="142.2"/>
		</g>
		<g>
			<line class="st3" x1="693.8" y1="352.4" x2="836" y2="354"/>
			
				<rect x="759.9" y="282.1" transform="matrix(1.125908e-02 -0.9999 0.9999 1.125908e-02 403.0876 1114.1045)" width="10" height="142.2"/>
		</g>
		<g>
			<line class="st3" x1="754.3" y1="388.9" x2="835.6" y2="389.8"/>
			
				<rect x="790" y="348.7" transform="matrix(1.126339e-02 -0.9999 0.9999 1.126339e-02 396.6795 1179.9152)" width="10" height="81.3"/>
		</g>
		<g>
			<line class="st3" x1="602.1" y1="500.4" x2="832.4" y2="503"/>
			
				<rect x="712.3" y="386.6" transform="matrix(1.126228e-02 -0.9999 0.9999 1.126228e-02 207.4981 1213.2882)" width="10" height="230.3"/>
		</g>
		<g>
			<line class="st3" x1="601.6" y1="544.9" x2="831.9" y2="547.5"/>
			
				<rect x="711.8" y="431.1" transform="matrix(1.126228e-02 -0.9999 0.9999 1.126228e-02 162.4958 1256.7958)" width="10" height="230.3"/>
		</g>
		<g>
			<line class="st3" x1="601.2" y1="585.6" x2="831.5" y2="588.2"/>
			
				<rect x="711.3" y="471.7" transform="matrix(1.126228e-02 -0.9999 0.9999 1.126228e-02 121.4059 1296.5198)" width="10" height="230.3"/>
		</g>
		<g>
			<line class="st3" x1="600.5" y1="643.6" x2="708.9" y2="644.8"/>
			
				<rect x="649.7" y="590.1" transform="matrix(1.126339e-02 -0.9999 0.9999 1.126339e-02 3.1196 1291.6339)" width="10" height="108.4"/>
		</g>
	</g>
	<g>
		<path id="XMLID_2_" class="st3" d="M899,329.3c0,0-22.6,0.5-23.4,12.8c-0.8,12.3,27.5,76.4,19.7,101.7c-7.8,25.3,50,4.6,50,4.6
			l18.8-29.3l-0.4-28.1l-6.7-19.3L899,329.3z"/>
		<path d="M908.1,461.4c-6.9,0-11.8-1.5-14.9-4.4c-2.5-2.4-5.1-6.9-2.7-14.6c4.6-14.9-5.7-48.3-12.6-70.4
			c-4.9-15.9-7.7-25.1-7.3-30.1c0.3-5.1,3.3-12,15.6-15.5c6.3-1.8,12.4-2,12.7-2l1.7,0l60.6,44.3l7.5,21.5l0.5,30.4l-20.5,32
			l-1.6,0.6c-0.4,0.1-10.2,3.7-21.4,6.1C918.8,460.7,912.9,461.4,908.1,461.4z M897.5,334.4c-5.2,0.4-16.6,2.4-16.9,8.1
			c-0.2,3.4,3.4,15.2,6.9,26.5c8,26,18.1,58.4,12.6,76.3c-0.5,1.5-0.9,3.6,0,4.4c4.2,4,24.8,0.5,41.9-5.5l17-26.6l-0.4-25.8l-5.9-17
			L897.5,334.4z"/>
		<g id="XMLID_1_">
			<path class="st3" d="M958.3,503.7l-0.4,42.4h-72.3l0.3-35.8c-5.9-4.2-22.9-51-21-59.2c1.9-8.2-4.2-45.3-7.3-59.5
				c-3.1-14.2,8.6-13.5,13.6-13.5c5,0,16.8,44.9,16.8,44.9c42.2,23.8,50.2-30.3,46.6-37.6c-3.6-7.3-29.9-29.5-47.1-48.9
				c-17.2-19.4-2.5-27.5-2.5-27.5c42,8.6,92.5,78.6,92.5,78.6l-0.7,82.8C976.3,489.7,958.3,503.7,958.3,503.7z"/>
		</g>
		<g id="XMLID_227_">
			<path d="M962.9,551.2h-82.3l0.3-38.8c-4.7-5.9-10.1-19.8-13.1-28.3c-3.5-9.9-9.2-27.4-7.7-33.9c1.4-6.2-3.4-39.7-7.3-57.3
				c-1.3-6.1-0.5-10.9,2.3-14.4c4.4-5.3,11.7-5.3,15.7-5.2l0.5,0c4.7,0,8,3.8,15,25.9c2.6,8.3,5,16.7,6,20.6c11,5.7,20,5.8,26.6,0.2
				c10.5-8.9,12.5-28.8,11.3-32.3c-1.7-3.3-11.3-12.6-19.9-20.8c-8.7-8.4-18.5-17.9-26.5-26.9c-7.4-8.4-10.6-16.2-9.4-23.3
				c1.4-7.9,7.5-11.5,8.2-11.8l1.6-0.9l1.8,0.4c43.4,8.9,93.4,77.7,95.6,80.6l1,1.3l-0.7,84.5c-0.6,17.6-13.6,30.9-18.6,35.4
				L962.9,551.2z M890.7,541.2H953l0.3-39.9l1.9-1.5c0.3-0.2,16.1-12.9,16.7-29.4l0.7-81c-7-9.3-50.2-65.6-86.3-74.8
				c-0.8,0.8-1.7,2.1-2,3.9c-0.6,3.9,1.8,9,7,14.9c7.7,8.7,17.4,18.1,26,26.3c12.5,12.1,19.7,19.1,21.9,23.7
				c3.1,6.4,0.7,30.6-12.6,43.2c-7.3,6.9-20.3,12.6-41,1l-1.8-1l-0.5-2.1c-4.4-16.7-10.6-36.2-13.7-41.1c-2.3,0-5.6,0.2-6.7,1.5
				c-0.8,1-0.9,3.1-0.3,5.9c2.2,10.2,9.6,51.4,7.2,61.7c-0.4,2.1,1.6,12.1,7.2,27.8c5.5,15.3,10.3,24.6,11.9,26.2l2,1.4L890.7,541.2
				z M871.3,383.2C871.3,383.2,871.3,383.2,871.3,383.2L871.3,383.2z"/>
		</g>
		
			<rect x="870.3" y="547.2" transform="matrix(-1 -4.488244e-11 4.488244e-11 -1 1846.0215 1149.5382)" class="st1" width="105.5" height="55.2"/>
		<path d="M980.7,607.4H865.3v-65.2h115.5V607.4z M875.3,597.4h95.5v-45.2h-95.5V597.4z"/>
		<rect x="855.5" y="601.5" class="st2" width="131.1" height="345"/>
		<path d="M955,344.4C954.9,344.4,954.9,344.4,955,344.4c-1.4,0-2.6-0.5-3.6-1.5l-16.8-17.1c-1.9-2-1.9-5.1,0-7.1l13.5-13.4
			c3.7-3.7,9.8-3.6,13.4,0.1l10.5,10.7c1.8,1.8,2.7,4.2,2.7,6.7c0,2.5-1,4.9-2.8,6.7l-13.5,13.3C957.5,343.9,956.3,344.4,955,344.4z
			 M945.2,322.3l9.8,10l9.5-9.5l-9.8-10L945.2,322.3z M964.9,323.2L964.9,323.2L964.9,323.2z M964.9,322.5
			C964.9,322.5,964.9,322.5,964.9,322.5L964.9,322.5z M954.4,312.5C954.4,312.5,954.4,312.5,954.4,312.5L954.4,312.5L954.4,312.5z"
			/>
		<path d="M991.6,951.6H850.5v-355h141.1V951.6z M860.5,941.6h121.1v-335H860.5V941.6z"/>
		<path class="st2" d="M938.1,322.3l-62.7,61.6c2.9,6.2,6.2,16.6,8.7,25.1l70.8-69.6L938.1,322.3z"/>
		<path class="st2" d="M824.5,433.9l5.4,5.5l6.2,6.3l5.2,5.3l22.6-22.2c-1.2-9.8-3-20.8-4.6-29.2L824.5,433.9z"/>
		<path d="M884.2,414c-0.4,0-0.8-0.1-1.3-0.2c-1.7-0.4-3-1.7-3.5-3.4c-3.3-11.2-6.2-19.6-8.4-24.4c-0.9-1.9-0.5-4.2,1-5.7l62.7-61.6
			c2-1.9,5.1-1.9,7.1,0.1l16.8,17.1c1.9,2,1.9,5.1-0.1,7.1l-70.8,69.6C886.7,413.4,885.5,414,884.2,414z M881.4,385
			c1.5,3.8,3.2,8.7,5.1,14.6l61.3-60.3l-9.8-10L881.4,385z"/>
		<path d="M841.3,456.1c-1.3,0-2.6-0.5-3.6-1.5l-16.8-17.1c-1.9-2-1.9-5.1,0.1-7.1l34.8-34.2c1.3-1.3,3.2-1.8,5-1.2
			c1.8,0.6,3.1,2,3.4,3.9c1.8,9.8,3.5,20.6,4.6,29.4c0.2,1.5-0.3,3.1-1.5,4.2l-22.6,22.2C843.9,455.6,842.6,456.1,841.3,456.1z
			 M831.6,434l9.8,10l17.3-17c-0.7-5.3-1.6-11.2-2.6-17.1L831.6,434z"/>
		<path d="M812.1,468.6c-1.5,0-2.9-0.6-4-1.7c0,0,0,0,0,0c-1.7-1.7-2.1-4.2-1.1-6.4l5.5-12.2c0.7-1.5,2.1-2.6,3.7-2.9
			c1.6-0.3,3.3,0.2,4.4,1.4l7.6,7.8c1.2,1.2,1.7,2.8,1.3,4.5c-0.3,1.6-1.4,3-2.9,3.6l-12.2,5.3C813.6,468.5,812.8,468.6,812.1,468.6
			z"/>
		<path d="M824.7,463.3c-1.3,0-2.6-0.5-3.6-1.5l-7.6-7.8c-1.4-1.5-1.8-3.7-1-5.6l7.5-16.5c0.7-1.5,2.1-2.6,3.7-2.9
			c1.6-0.3,3.3,0.2,4.4,1.4l16.8,17.1c1.2,1.2,1.7,2.8,1.3,4.5s-1.4,3-2.9,3.6l-16.7,7.2C826,463.1,825.3,463.3,824.7,463.3z
			 M823,449.4l2.8,2.9l6.8-3l-6.6-6.7L823,449.4z"/>
	</g>
	<g>
		
			<rect x="475.9" y="669" transform="matrix(-1 -4.488244e-11 4.488244e-11 -1 1057.2758 1393.1869)" class="st1" width="105.5" height="55.2"/>
		<path d="M586.4,729.2H470.9V664h115.5V729.2z M480.9,719.2h95.5V674h-95.5V719.2z"/>
		<rect x="463.1" y="723.4" class="st2" width="131.1" height="224.7"/>
		<path d="M599.2,953.1H458.1V718.4h141.1V953.1z M468.1,943.1h121.1V728.4H468.1V943.1z"/>
		<g>
			<path id="XMLID_3_" class="st3" d="M588,484.8c-3.6-0.1-11.1,22.1-15.4,35.8c-0.5,1.7-3,1.3-3-0.5l1.2-78.7
				c0.1-4.3-3.4-7.9-7.7-8l-3.6-0.1c-4.3-0.1-7.9,3.4-8,7.7l-1.3,82.9c0,2.2-1.8,3.9-4,3.8h0c-2.2,0-3.9-1.8-3.8-4l1.4-91
				c0.1-4.3-3.4-7.9-7.7-8l-1.7,0c-4.3-0.1-7.9,3.4-8,7.7l-1.4,91c0,2.2-1.8,3.9-4,3.8h0c-2.2,0-3.9-1.8-3.8-4l1.3-83.4
				c0.1-4.3-3.4-7.9-7.7-8l-1.2,0c-4.3-0.1-7.9,3.4-8,7.7l-1.3,83.4c0,2.2-1.8,3.9-4,3.8h0c-2.2,0-3.9-1.8-3.8-4l0.8-54.6
				c0.1-4.2-3-7.9-7.2-8.2c-4.6-0.4-8.4,3.2-8.5,7.7L476,578.1c0.2,20,18.5,35,18.5,35l-0.9,56.6l75.1,1.1l0.7-49
				c6.2-4.2,25-52.4,23.3-61c-1.8-8.6,5.5-47,9-61.7C605.3,484.5,593.2,484.9,588,484.8z"/>
			<path d="M573.7,675.9l-85.1-1.3l0.9-59.3c-5-4.7-18.3-18.9-18.5-37.2l0-0.1l0-0.1l1.7-110.1c0.1-3.5,1.6-6.9,4.2-9.3
				c2.6-2.4,6.1-3.6,9.7-3.3c4.1,0.3,7.6,2.6,9.7,5.9l0.3-21.4c0.1-3.4,1.4-6.6,3.9-9c2.5-2.4,5.7-3.7,9.1-3.6l1.2,0
				c4.4,0.1,8.3,2.4,10.6,5.8l0-0.4c0.1-3.4,1.4-6.6,3.9-9c2.5-2.4,5.7-3.7,9.1-3.6l1.7,0c3.4,0.1,6.6,1.4,9,3.9
				c2.4,2.5,3.7,5.7,3.6,9.1l0,0.9c2.3-3.3,6.2-5.5,10.5-5.5c0.1,0,0.1,0,0.2,0l3.6,0.1c3.4,0.1,6.6,1.4,9,3.9
				c2.4,2.5,3.7,5.7,3.6,9.1l-0.9,56.7c0.3-0.8,0.6-1.6,0.9-2.4c4.8-12.1,7.7-16,12.2-15.9l0.6,0c4.1,0,11.7,0.1,16,5.7
				c2.8,3.6,3.5,8.6,2,14.8c-4.4,18.3-10.3,53-9,59.5c1.4,6.8-5,24.8-8.9,35c-3.4,8.8-9.4,23.2-14.3,29.1L573.7,675.9z M498.7,664.8
				l65.1,1l0.7-46.6l2.1-1.4c5.5-4.9,22.3-49.2,21.2-55.9c-2.2-10.7,6.5-53.3,9.1-63.9c0.7-3,0.7-5.2-0.2-6.3
				c-1.2-1.5-4.7-1.8-7.1-1.8c-1.4,2.1-5.1,9.2-12.3,32.2c-1,3.1-4,5-7.3,4.5c-3.2-0.5-5.5-3.3-5.5-6.5l1.2-78.7
				c0-0.8-0.3-1.5-0.8-2c-0.5-0.5-1.2-0.9-2-0.9l-3.6-0.1c-1.6-0.1-2.9,1.2-2.9,2.8l-1.3,82.9c0,2.4-1,4.6-2.7,6.2
				c-1.7,1.7-4,2.5-6.3,2.5c-4.9-0.1-8.8-4.1-8.8-9l1.4-91c0-0.8-0.3-1.5-0.8-2c-0.5-0.5-1.2-0.9-2-0.9l-1.7,0c-0.8,0-1.5,0.3-2,0.8
				c-0.5,0.5-0.9,1.2-0.9,2l-1.4,91c-0.1,4.9-4.1,8.8-8.9,8.8c0,0-0.1,0-0.1,0c-4.9-0.1-8.8-4.1-8.8-9l1.3-83.4
				c0-1.6-1.2-2.9-2.8-2.9l-1.2,0c-0.8,0-1.5,0.3-2,0.8c-0.5,0.5-0.9,1.2-0.9,2l-1.3,83.4c0,2.4-1,4.6-2.7,6.2s-4,2.6-6.3,2.5
				c-4.9-0.1-8.8-4.1-8.8-9l0.8-54.6c0-1.6-1.1-3-2.6-3.1c-1.1-0.1-1.8,0.4-2.2,0.7s-0.9,1-0.9,2.1l-1.7,110
				c0.2,17.4,16.5,31,16.7,31.1l1.9,1.5L498.7,664.8z M566.7,617.7C566.7,617.7,566.7,617.7,566.7,617.7L566.7,617.7z M587.9,489.8
				C587.9,489.8,587.9,489.8,587.9,489.8L587.9,489.8z"/>
		</g>
	</g>
	<g>
		<path class="st4" d="M262.2,326.9H96.1c-13.6,0-24.6-11-24.6-24.6V87c0-13.6,11-24.6,24.6-24.6h166.1c13.6,0,24.6,11,24.6,24.6
			v215.2C286.8,315.9,275.8,326.9,262.2,326.9z"/>
		<circle class="st3" cx="114.5" cy="101.7" r="16.6"/>
		<circle class="st3" cx="179.5" cy="101.7" r="16.6"/>
		<circle class="st3" cx="243.8" cy="101.7" r="16.6"/>
		<circle class="st3" cx="114.5" cy="163.9" r="16.6"/>
		<circle class="st3" cx="179.5" cy="163.9" r="16.6"/>
		<circle class="st3" cx="243.8" cy="163.9" r="16.6"/>
		<circle class="st3" cx="114.5" cy="225.4" r="16.6"/>
		<circle class="st3" cx="179.5" cy="225.4" r="16.6"/>
		<circle class="st3" cx="243.8" cy="225.4" r="16.6"/>
		<circle class="st3" cx="114.5" cy="287.6" r="16.6"/>
		<circle class="st3" cx="179.5" cy="287.6" r="16.6"/>
		<circle class="st3" cx="243.8" cy="287.6" r="16.6"/>
		<path d="M262.2,331.9H96.1c-16.3,0-29.6-13.3-29.6-29.6V87c0-16.3,13.3-29.6,29.6-29.6h166.1c16.3,0,29.6,13.3,29.6,29.6v215.2
			C291.8,318.6,278.5,331.9,262.2,331.9z M96.1,67.4c-10.8,0-19.6,8.8-19.6,19.6v215.2c0,10.8,8.8,19.6,19.6,19.6h166.1
			c10.8,0,19.6-8.8,19.6-19.6V87c0-10.8-8.8-19.6-19.6-19.6H96.1z"/>
		<path d="M114.5,123.3c-11.9,0-21.6-9.7-21.6-21.6S102.6,80,114.5,80c11.9,0,21.6,9.7,21.6,21.6S126.5,123.3,114.5,123.3z
			 M114.5,90c-6.4,0-11.6,5.2-11.6,11.6s5.2,11.6,11.6,11.6s11.6-5.2,11.6-11.6S120.9,90,114.5,90z"/>
		<rect x="98.6" y="97.5" transform="matrix(0.7071 -0.7071 0.7071 0.7071 -39.0547 110.743)" width="31.1" height="10"/>
		<path d="M179.5,123.3c-11.9,0-21.6-9.7-21.6-21.6S167.6,80,179.5,80s21.6,9.7,21.6,21.6S191.5,123.3,179.5,123.3z M179.5,90
			c-6.4,0-11.6,5.2-11.6,11.6s5.2,11.6,11.6,11.6s11.6-5.2,11.6-11.6S186,90,179.5,90z"/>
		<rect x="163.6" y="97.5" transform="matrix(0.7071 -0.7071 0.7071 0.7071 -20.0125 156.7149)" width="31.1" height="10"/>
		<path d="M243.8,123.3c-11.9,0-21.6-9.7-21.6-21.6S231.9,80,243.8,80s21.6,9.7,21.6,21.6S255.8,123.3,243.8,123.3z M243.8,90
			c-6.4,0-11.6,5.2-11.6,11.6s5.2,11.6,11.6,11.6s11.6-5.2,11.6-11.6S250.3,90,243.8,90z"/>
		<rect x="227.9" y="97.5" transform="matrix(0.7071 -0.7071 0.7071 0.7071 -1.175 202.1926)" width="31.1" height="10"/>
		<path d="M114.5,185.5c-11.9,0-21.6-9.7-21.6-21.6s9.7-21.6,21.6-21.6c11.9,0,21.6,9.7,21.6,21.6S126.5,185.5,114.5,185.5z
			 M114.5,152.2c-6.4,0-11.6,5.2-11.6,11.6s5.2,11.6,11.6,11.6s11.6-5.2,11.6-11.6S120.9,152.2,114.5,152.2z"/>
		<rect x="98.6" y="159.7" transform="matrix(0.7071 -0.7071 0.7071 0.7071 -83.0493 128.9661)" width="31.1" height="10"/>
		<path d="M179.5,185.5c-11.9,0-21.6-9.7-21.6-21.6s9.7-21.6,21.6-21.6s21.6,9.7,21.6,21.6S191.5,185.5,179.5,185.5z M179.5,152.2
			c-6.4,0-11.6,5.2-11.6,11.6s5.2,11.6,11.6,11.6s11.6-5.2,11.6-11.6S186,152.2,179.5,152.2z"/>
		<rect x="163.6" y="159.7" transform="matrix(0.7071 -0.7071 0.7071 0.7071 -64.0071 174.9381)" width="31.1" height="10"/>
		<path d="M243.8,185.5c-11.9,0-21.6-9.7-21.6-21.6s9.7-21.6,21.6-21.6s21.6,9.7,21.6,21.6S255.8,185.5,243.8,185.5z M243.8,152.2
			c-6.4,0-11.6,5.2-11.6,11.6s5.2,11.6,11.6,11.6s11.6-5.2,11.6-11.6S250.3,152.2,243.8,152.2z"/>
		<rect x="227.9" y="159.7" transform="matrix(0.7071 -0.7071 0.7071 0.7071 -45.1696 220.4158)" width="31.1" height="10"/>
		<path d="M114.5,247c-11.9,0-21.6-9.7-21.6-21.6s9.7-21.6,21.6-21.6c11.9,0,21.6,9.7,21.6,21.6S126.5,247,114.5,247z M114.5,213.7
			c-6.4,0-11.6,5.2-11.6,11.6s5.2,11.6,11.6,11.6s11.6-5.2,11.6-11.6S120.9,213.7,114.5,213.7z"/>
		<rect x="98.6" y="221.2" transform="matrix(0.7071 -0.7071 0.7071 0.7071 -126.5453 146.9828)" width="31.1" height="10"/>
		<path d="M179.5,247c-11.9,0-21.6-9.7-21.6-21.6s9.7-21.6,21.6-21.6s21.6,9.7,21.6,21.6S191.5,247,179.5,247z M179.5,213.7
			c-6.4,0-11.6,5.2-11.6,11.6s5.2,11.6,11.6,11.6s11.6-5.2,11.6-11.6S186,213.7,179.5,213.7z"/>
		<rect x="163.6" y="221.2" transform="matrix(0.7071 -0.7071 0.7071 0.7071 -107.5031 192.9547)" width="31.1" height="10"/>
		<path d="M243.8,247c-11.9,0-21.6-9.7-21.6-21.6s9.7-21.6,21.6-21.6s21.6,9.7,21.6,21.6S255.8,247,243.8,247z M243.8,213.7
			c-6.4,0-11.6,5.2-11.6,11.6s5.2,11.6,11.6,11.6s11.6-5.2,11.6-11.6S250.3,213.7,243.8,213.7z"/>
		<rect x="227.9" y="221.2" transform="matrix(0.7071 -0.7071 0.7071 0.7071 -88.6656 238.4324)" width="31.1" height="10"/>
		<path d="M114.5,309.3c-11.9,0-21.6-9.7-21.6-21.6s9.7-21.6,21.6-21.6c11.9,0,21.6,9.7,21.6,21.6S126.5,309.3,114.5,309.3z
			 M114.5,276c-6.4,0-11.6,5.2-11.6,11.6s5.2,11.6,11.6,11.6s11.6-5.2,11.6-11.6S120.9,276,114.5,276z"/>
		<rect x="98.6" y="283.5" transform="matrix(0.7071 -0.7071 0.7071 0.7071 -170.5401 165.206)" width="31.1" height="10"/>
		<path d="M179.5,309.3c-11.9,0-21.6-9.7-21.6-21.6s9.7-21.6,21.6-21.6s21.6,9.7,21.6,21.6S191.5,309.3,179.5,309.3z M179.5,276
			c-6.4,0-11.6,5.2-11.6,11.6s5.2,11.6,11.6,11.6s11.6-5.2,11.6-11.6S186,276,179.5,276z"/>
		<rect x="163.6" y="283.5" transform="matrix(0.7071 -0.7071 0.7071 0.7071 -151.4979 211.178)" width="31.1" height="10"/>
		<path d="M243.8,309.3c-11.9,0-21.6-9.7-21.6-21.6s9.7-21.6,21.6-21.6s21.6,9.7,21.6,21.6S255.8,309.3,243.8,309.3z M243.8,276
			c-6.4,0-11.6,5.2-11.6,11.6s5.2,11.6,11.6,11.6s11.6-5.2,11.6-11.6S250.3,276,243.8,276z"/>
		<rect x="227.9" y="283.5" transform="matrix(0.7071 -0.7071 0.7071 0.7071 -132.6604 256.6557)" width="31.1" height="10"/>
	</g>
	<g>
		<path class="st3" d="M411.9,263L301.4,152.5c-5.1-5.1-13.5-5.1-18.6,0L126.4,309c-5.1,5.1-5.1,13.5,0,18.6L236.8,438
			c5.1,5.1,13.5,5.1,18.6,0l156.4-156.4C417,276.5,417,268.1,411.9,263z"/>
		<g>
			<g>
				<path class="st2" d="M327.1,205.7l-15.3-15.3l-17.3,17.3l15.3,15.3c4.7,4.7,12.5,4.7,17.3,0l0,0
					C331.9,218.2,331.9,210.4,327.1,205.7z"/>
				<path d="M318.5,231.5c-4.4,0-8.8-1.7-12.2-5l-29.1-29.1c-6.7-6.7-6.7-17.6,0-24.3c6.7-6.7,17.6-6.7,24.3,0l29.1,29.1
					c6.7,6.7,6.7,17.6,0,24.3C327.3,229.8,322.9,231.5,318.5,231.5z M289.4,178c-1.8,0-3.7,0.7-5.1,2.1c-2.8,2.8-2.8,7.4,0,10.2
					l29.1,29.1c2.8,2.8,7.4,2.8,10.2,0c2.8-2.8,2.8-7.4,0-10.2l-29.1-29.1C293.1,178.7,291.2,178,289.4,178z"/>
			</g>
			<g>
				<path class="st2" d="M387.9,266.4l-15.3-15.3l-17.3,17.3l15.3,15.3c4.7,4.7,12.5,4.7,17.3,0l0,0
					C392.6,278.9,392.6,271.1,387.9,266.4z"/>
				<path d="M379.2,292.2c-4.4,0-8.8-1.7-12.2-5L337.9,258c-6.7-6.7-6.7-17.6,0-24.3c6.7-6.7,17.6-6.7,24.3,0l29.1,29.1
					c6.7,6.7,6.7,17.6,0,24.3C388,290.5,383.6,292.2,379.2,292.2z M350.1,238.7c-1.8,0-3.7,0.7-5.1,2.1c-2.8,2.8-2.8,7.4,0,10.2
					l29.1,29.1c2.8,2.8,7.4,2.8,10.2,0c2.8-2.8,2.8-7.4,0-10.2l-29.1-29.1C353.8,239.4,352,238.7,350.1,238.7z"/>
			</g>
		</g>
		<g>
			<g>
				<path class="st2" d="M294.8,238l-15.3-15.3l-17.3,17.3l15.3,15.3c4.7,4.7,12.5,4.7,17.3,0l0,0
					C299.6,250.5,299.6,242.7,294.8,238z"/>
				<path d="M286.2,263.8c-4.4,0-8.8-1.7-12.2-5l-29.1-29.1c-6.7-6.7-6.7-17.6,0-24.3c3.2-3.2,7.6-5,12.2-5c4.6,0,8.9,1.8,12.2,5
					l29.1,29.1c6.7,6.7,6.7,17.6,0,24.3C295,262.1,290.6,263.8,286.2,263.8z M257.1,210.3c-1.9,0-3.7,0.7-5.1,2.1
					c-2.8,2.8-2.8,7.4,0,10.2l29.1,29.1c2.8,2.8,7.4,2.8,10.2,0s2.8-7.4,0-10.2l-29.1-29.1C260.8,211,259,210.3,257.1,210.3z"/>
			</g>
			<g>
				<path class="st2" d="M355.5,298.7l-15.3-15.3L323,300.6l15.3,15.3c4.7,4.7,12.5,4.7,17.3,0h0
					C360.3,311.2,360.3,303.4,355.5,298.7z"/>
				<path d="M346.9,324.5c-4.4,0-8.8-1.7-12.2-5l-29.1-29.1c-6.7-6.7-6.7-17.6,0-24.3c3.2-3.2,7.6-5,12.2-5c4.6,0,8.9,1.8,12.2,5
					l29.1,29.1c6.7,6.7,6.7,17.6,0,24.3C355.7,322.8,351.3,324.5,346.9,324.5z M317.8,271c-1.9,0-3.7,0.7-5.1,2.1
					c-2.8,2.8-2.8,7.4,0,10.2l29.1,29.1c2.8,2.8,7.4,2.8,10.2,0c2.8-2.8,2.8-7.4,0-10.2l-29.1-29.1C321.5,271.7,319.7,271,317.8,271
					z"/>
			</g>
		</g>
		<g>
			<g>
				<path class="st2" d="M261.7,271.1l-15.3-15.3L229.2,273l15.3,15.3c4.7,4.7,12.5,4.7,17.3,0v0
					C266.5,283.6,266.5,275.8,261.7,271.1z"/>
				<path d="M253.1,296.9c-4.4,0-8.8-1.7-12.2-5l-29.1-29.1c-3.2-3.2-5-7.6-5-12.2s1.8-8.9,5-12.2c6.7-6.7,17.6-6.7,24.3,0
					l29.1,29.1c6.7,6.7,6.7,17.6,0,24.3C261.9,295.2,257.5,296.9,253.1,296.9z M248,284.8c2.8,2.8,7.4,2.8,10.2,0
					c2.8-2.8,2.8-7.4,0-10.2l-29.1-29.1c-2.8-2.8-7.4-2.8-10.2,0c-1.4,1.4-2.1,3.2-2.1,5.1s0.7,3.7,2.1,5.1L248,284.8z"/>
			</g>
			<g>
				<path class="st2" d="M322.4,331.8l-15.3-15.3l-17.3,17.3l15.3,15.3c4.7,4.7,12.5,4.7,17.3,0v0
					C327.2,344.3,327.2,336.5,322.4,331.8z"/>
				<path d="M313.8,357.6c-4.4,0-8.8-1.7-12.2-5l-29.1-29.1c-3.2-3.2-5-7.6-5-12.2c0-4.6,1.8-8.9,5-12.2c6.7-6.7,17.6-6.7,24.3,0
					l29.1,29.1c6.7,6.7,6.7,17.6,0,24.3C322.6,355.9,318.2,357.6,313.8,357.6z M308.7,345.5c2.8,2.8,7.4,2.8,10.2,0s2.8-7.4,0-10.2
					l-29.1-29.1c-2.8-2.8-7.4-2.8-10.2,0c-1.4,1.4-2.1,3.2-2.1,5.1c0,1.9,0.7,3.7,2.1,5.1L308.7,345.5z"/>
			</g>
		</g>
		<g>
			<g>
				<path class="st2" d="M228.8,304l-15.3-15.3L196.3,306l15.3,15.3c4.7,4.7,12.5,4.7,17.3,0l0,0C233.5,316.5,233.5,308.8,228.8,304
					z"/>
				<path d="M220.2,329.8c-4.4,0-8.8-1.7-12.2-5l-29.1-29.1c-6.7-6.7-6.7-17.6,0-24.3c3.2-3.2,7.6-5,12.2-5s8.9,1.8,12.2,5
					l29.1,29.1c6.7,6.7,6.7,17.6,0,24.3C229,328.2,224.6,329.8,220.2,329.8z M191,276.3c-1.9,0-3.7,0.7-5.1,2.1
					c-2.8,2.8-2.8,7.4,0,10.2l29.1,29.1c2.8,2.8,7.4,2.8,10.2,0c2.8-2.8,2.8-7.4,0-10.2l-29.1-29.1C194.8,277.1,193,276.3,191,276.3
					z"/>
			</g>
			<g>
				<path class="st2" d="M289.5,364.7l-15.3-15.3L257,366.7l15.3,15.3c4.7,4.7,12.5,4.7,17.3,0v0
					C294.2,377.2,294.2,369.5,289.5,364.7z"/>
				<path d="M280.9,390.5c-4.4,0-8.8-1.7-12.2-5l-29.1-29.1c-6.7-6.7-6.7-17.6,0-24.3c3.2-3.2,7.6-5,12.2-5c4.6,0,8.9,1.8,12.2,5
					l29.1,29.1c6.7,6.7,6.7,17.6,0,24.3C289.7,388.9,285.3,390.5,280.9,390.5z M251.8,337c-1.9,0-3.7,0.7-5.1,2.1
					c-2.8,2.8-2.8,7.4,0,10.2l29.1,29.1c2.8,2.8,7.4,2.8,10.2,0c2.8-2.8,2.8-7.4,0-10.2l-29.1-29.1C255.5,337.8,253.7,337,251.8,337
					z"/>
			</g>
		</g>
		<g>
			<g>
				<path class="st2" d="M196.3,336.5L181,321.2l-17.3,17.3l15.3,15.3c4.7,4.7,12.5,4.7,17.3,0l0,0
					C201.1,349,201.1,341.2,196.3,336.5z"/>
				<path d="M187.7,362.3c-4.6,0-8.9-1.8-12.2-5l-29.1-29.1c-6.7-6.7-6.7-17.6,0-24.3c6.7-6.7,17.6-6.7,24.3,0l29.1,29.1
					c6.7,6.7,6.7,17.6,0,24.3C196.6,360.5,192.3,362.3,187.7,362.3z M158.6,308.8c-1.8,0-3.7,0.7-5.1,2.1c-2.8,2.8-2.8,7.4,0,10.2
					l29.1,29.1c1.4,1.4,3.2,2.1,5.1,2.1s3.7-0.7,5.1-2.1c2.8-2.8,2.8-7.4,0-10.2l-29.1-29.1C162.3,309.5,160.4,308.8,158.6,308.8z"
					/>
			</g>
			<g>
				<path class="st2" d="M257,397.2l-15.3-15.3l-17.3,17.3l15.3,15.3c4.7,4.7,12.5,4.7,17.3,0l0,0
					C261.8,409.7,261.8,401.9,257,397.2z"/>
				<path d="M248.4,423c-4.4,0-8.8-1.7-12.2-5l-29.1-29.1c-6.7-6.7-6.7-17.6,0-24.3c6.7-6.7,17.6-6.7,24.3,0l29.1,29.1
					c6.7,6.7,6.7,17.6,0,24.3C257.2,421.3,252.8,423,248.4,423z M219.3,369.5c-1.8,0-3.7,0.7-5.1,2.1c-2.8,2.8-2.8,7.4,0,10.2
					l29.1,29.1c2.8,2.8,7.4,2.8,10.2,0s2.8-7.4,0-10.2l-29.1-29.1C223,370.2,221.1,369.5,219.3,369.5z"/>
			</g>
		</g>
		<path d="M246.1,446.9c-4.8,0-9.4-1.9-12.8-5.3L122.8,331.1c-7.1-7.1-7.1-18.6,0-25.7L279.3,149c7.1-7.1,18.6-7.1,25.7,0
			l110.5,110.5c3.4,3.4,5.3,8,5.3,12.8s-1.9,9.4-5.3,12.8L258.9,441.6C255.5,445,251,446.9,246.1,446.9z M292.1,153.7
			c-2.1,0-4.2,0.8-5.8,2.4L129.9,312.5c-3.2,3.2-3.2,8.3,0,11.5l110.5,110.5c1.5,1.5,3.6,2.4,5.8,2.4s4.2-0.8,5.8-2.4l156.4-156.4
			c1.5-1.5,2.4-3.6,2.4-5.8s-0.8-4.2-2.4-5.8h0L297.9,156.1C296.3,154.5,294.2,153.7,292.1,153.7z"/>
	</g>
	<path d="M1192.8,639.1c-63.9,0-115.8-52-115.8-115.8V420c-43.7-5.2-77.3-42.5-77.3-87.1v-78.2h25.8v78.2
		c0,34.1,27.8,61.9,61.9,61.9s61.9-27.8,61.9-61.9v-78.2h25.8v78.2c0,21-7.6,41.3-21.3,57.2c-12.6,14.6-29.7,24.7-48.4,28.6v104.6
		c0,48.2,39.2,87.5,87.5,87.5s87.5-39.2,87.5-87.5V364.7h28.3v158.6C1308.6,587.2,1256.6,639.1,1192.8,639.1z M1009.6,264.7v68.2
		c0,40.9,31.9,74.9,72.7,77.5l4.7,0.3v112.6c0,58.3,47.5,105.8,105.8,105.8s105.8-47.5,105.8-105.8V374.7h-8.3v148.6
		c0,53.7-43.7,97.5-97.5,97.5s-97.5-43.7-97.5-97.5v-113l4.2-0.7c18-2.9,34.6-12.1,46.6-26.1c12.2-14.1,18.8-32.1,18.8-50.7v-68.2
		h-5.8v68.2c0,39.6-32.2,71.9-71.9,71.9s-71.9-32.2-71.9-71.9v-68.2H1009.6z"/>
	<path d="M1294.3,373.6c-31.4,0-57-25.6-57-57s25.6-57,57-57s57,25.6,57,57S1325.8,373.6,1294.3,373.6z M1294.3,269.6
		c-25.9,0-47,21.1-47,47s21.1,47,47,47s47-21.1,47-47S1320.3,269.6,1294.3,269.6z"/>
	<circle cx="1294.3" cy="316.6" r="28.8"/>
	<g>
		<circle class="st0" cx="472.1" cy="162.6" r="25.8"/>
		<path d="M472.1,193.4c-17,0-30.8-13.8-30.8-30.8c0-17,13.8-30.8,30.8-30.8s30.8,13.8,30.8,30.8C502.8,179.6,489,193.4,472.1,193.4
			z M472.1,141.8c-11.5,0-20.8,9.3-20.8,20.8c0,11.5,9.3,20.8,20.8,20.8s20.8-9.3,20.8-20.8C492.8,151.1,483.5,141.8,472.1,141.8z"
			/>
		<rect x="466.8" y="136.7" width="10" height="52"/>
		
			<ellipse transform="matrix(0.7071 -0.7071 0.7071 0.7071 30.5674 329.4122)" class="st2" cx="412.9" cy="127.8" rx="21.1" ry="21.1"/>
		<path d="M412.9,153.9c-6.7,0-13.4-2.5-18.4-7.6c-10.2-10.2-10.2-26.7,0-36.9c10.2-10.2,26.7-10.2,36.9,0
			c10.2,10.2,10.2,26.7,0,36.9l0,0C426.3,151.3,419.6,153.9,412.9,153.9z M412.9,111.7c-4.1,0-8.2,1.6-11.4,4.7
			c-6.3,6.3-6.3,16.5,0,22.7c6.3,6.3,16.5,6.3,22.7,0c6.3-6.3,6.3-16.5,0-22.7C421.1,113.3,417,111.7,412.9,111.7z"/>
		<rect x="391.4" y="122.7" transform="matrix(0.7071 -0.7071 0.7071 0.7071 30.5492 329.2397)" width="42.5" height="10"/>
		<path d="M415.9,211.2c-7,0-13.5-2.7-18.4-7.6c-10.2-10.2-10.2-26.7,0-36.9c4.9-4.9,11.5-7.6,18.4-7.6s13.5,2.7,18.4,7.6
			s7.6,11.5,7.6,18.4s-2.7,13.5-7.6,18.4l0,0l0,0C429.4,208.4,422.9,211.2,415.9,211.2z M415.9,169c-4.3,0-8.3,1.7-11.4,4.7
			c-6.3,6.3-6.3,16.5,0,22.7c3,3,7.1,4.7,11.4,4.7s8.3-1.7,11.4-4.7l0,0c3-3,4.7-7.1,4.7-11.4s-1.7-8.3-4.7-11.4
			C424.3,170.7,420.2,169,415.9,169z"/>
		<rect x="394.5" y="180" transform="matrix(0.7071 -0.7071 0.7071 0.7071 -9.0704 348.148)" width="42.5" height="10"/>
	</g>
	<g>
		
			<rect x="921.5" y="31.3" transform="matrix(6.123234e-17 -1 1 6.123234e-17 863.0741 1013.1703)" class="st2" width="33.3" height="87.4"/>
		
			<rect x="622.8" y="47.7" transform="matrix(6.123234e-17 -1 1 6.123234e-17 564.1443 714.2405)" class="st2" width="32.8" height="54.7"/>
		
			<rect x="654.5" y="59.6" transform="matrix(6.123234e-17 -1 1 6.123234e-17 606.9551 757.0514)" class="st1" width="55" height="30.9"/>
		<path d="M899.4,107.5H661.6v-65h237.8V107.5z M671.6,97.5h217.8v-45H671.6V97.5z"/>
		<path d="M986.8,96.7h-97.4V53.4h97.4V96.7z M899.4,86.7h77.4V63.4h-77.4V86.7z"/>
		<path d="M702.5,107.5h-40.9v-65h40.9V107.5z M671.6,97.5h20.9v-45h-20.9V97.5z"/>
		<path d="M671.6,96.5h-64.7V53.6h64.7V96.5z M616.8,86.5h44.7V63.6h-44.7V86.5z"/>
		<rect x="889.4" y="26.9" width="10" height="96.3"/>
		<rect x="979" y="37.3" width="10" height="75.6"/>
		<rect x="413.9" y="70.2" width="200.5" height="10"/>
		<rect x="712.5" y="74.1" width="10" height="25"/>
		<rect x="788.3" y="74.1" width="10" height="25"/>
		<rect x="865.8" y="74.1" width="10" height="25"/>
		<rect x="731.8" y="85.4" width="10" height="13.8"/>
		<rect x="750.9" y="85.4" width="10" height="13.8"/>
		<rect x="769" y="85.4" width="10" height="13.8"/>
		<rect x="808.5" y="85.4" width="10" height="13.8"/>
		<rect x="827.6" y="85.4" width="10" height="13.8"/>
		<rect x="845.7" y="85.4" width="10" height="13.8"/>
	</g>
	<g>
		<path class="st0" d="M1244.4,41.2H1227v31.1h17.4c8.6,0,15.5-7,15.5-15.5v0C1259.9,48.2,1253,41.2,1244.4,41.2z"/>
		<path d="M1244.4,77.3h-37c-11.3,0-20.5-9.2-20.5-20.5s9.2-20.5,20.5-20.5h37c11.3,0,20.5,9.2,20.5,20.5S1255.7,77.3,1244.4,77.3z
			 M1207.4,46.2c-5.8,0-10.5,4.7-10.5,10.5s4.7,10.5,10.5,10.5h37c5.8,0,10.5-4.7,10.5-10.5s-4.7-10.5-10.5-10.5H1207.4z"/>
	</g>
	<g>
		<path class="st0" d="M1291.7,63.1l-11.9,12.7l22.7,21.3l11.9-12.7c5.9-6.3,5.6-16.1-0.7-22v0C1307.4,56.5,1297.6,56.8,1291.7,63.1
			z"/>
		<path d="M1277.7,121.2c-5,0-10.1-1.8-14.1-5.6c-4-3.8-6.3-8.8-6.5-14.3s1.8-10.7,5.6-14.7l25.3-27c7.8-8.3,20.8-8.7,29-0.9
			c8.3,7.8,8.7,20.8,0.9,29l0,0l-25.3,27C1288.6,119.1,1283.2,121.2,1277.7,121.2z M1303,63.2c-2.8,0-5.6,1.1-7.7,3.3l-25.3,27
			c-1.9,2.1-2.9,4.7-2.9,7.6s1.3,5.4,3.3,7.4c4.2,4,10.9,3.8,14.9-0.5l25.3-27c4-4.2,3.8-10.9-0.5-14.9
			C1308.2,64.1,1305.6,63.2,1303,63.2z"/>
	</g>
	<g>
		<path class="st0" d="M1182.7,131.1l10.6,13.7l24.6-19l-10.6-13.7c-5.2-6.8-15-8.1-21.8-2.8v0
			C1178.8,114.5,1177.5,124.3,1182.7,131.1z"/>
		<path d="M1217.7,171.5c-0.9,0-1.8-0.1-2.7-0.2c-5.4-0.7-10.3-3.5-13.6-7.8l-22.6-29.3c-3.3-4.3-4.8-9.7-4.1-15.2
			c0.7-5.4,3.5-10.3,7.8-13.6c9-6.9,21.9-5.2,28.8,3.7l22.6,29.3c3.3,4.3,4.8,9.7,4.1,15.2c-0.7,5.4-3.5,10.3-7.8,13.6
			C1226.6,170,1222.2,171.5,1217.7,171.5z M1195,111c-2.3,0-4.6,0.8-6.4,2.2c-2.2,1.7-3.7,4.2-4,7c-0.4,2.8,0.4,5.6,2.1,7.8
			l22.6,29.3c3.5,4.6,10.2,5.5,14.8,1.9c2.2-1.7,3.7-4.2,4-7c0.4-2.8-0.4-5.6-2.1-7.8l-22.6-29.3c-1.7-2.2-4.2-3.7-7-4
			C1196,111.1,1195.5,111,1195,111z"/>
	</g>
	<g>
		<path class="st0" d="M1289,143.9l10.6,13.7l24.6-19l-10.6-13.7c-5.2-6.8-15-8.1-21.8-2.8v0C1285,127.4,1283.8,137.1,1289,143.9z"
			/>
		<path d="M1324,184.3c-0.9,0-1.8-0.1-2.7-0.2c-5.4-0.7-10.3-3.5-13.6-7.8L1285,147c-6.9-9-5.2-21.9,3.7-28.8
			c4.3-3.3,9.7-4.8,15.2-4.1c5.4,0.7,10.3,3.5,13.6,7.8l22.6,29.3c3.3,4.3,4.8,9.7,4.1,15.2c-0.7,5.4-3.5,10.3-7.8,13.6
			C1332.8,182.9,1328.5,184.3,1324,184.3z M1301.3,123.9c-2.3,0-4.6,0.8-6.4,2.2c-2.2,1.7-3.7,4.2-4,7c-0.4,2.8,0.4,5.6,2.1,7.8
			l22.6,29.3c1.7,2.2,4.2,3.7,7,4c2.8,0.4,5.6-0.4,7.8-2.1c2.2-1.7,3.7-4.2,4-7c0.4-2.8-0.4-5.6-2.1-7.8l-22.6-29.3
			c-1.7-2.2-4.2-3.7-7-4C1302.2,123.9,1301.8,123.9,1301.3,123.9z"/>
	</g>
	<g>
		<path class="st0" d="M1273,138.7l-9.6,14.4l25.9,17.3l9.6-14.4c4.8-7.1,2.8-16.8-4.3-21.6v0C1287.5,129.6,1277.8,131.6,1273,138.7
			z"/>
		<path d="M1265.4,198.7c-3.9,0-7.9-1.1-11.4-3.5c-4.6-3-7.7-7.7-8.7-13.1c-1.1-5.4,0-10.9,3.1-15.4l20.6-30.8
			c3-4.6,7.7-7.7,13.1-8.7c5.4-1.1,10.9,0,15.4,3.1c4.6,3,7.7,7.7,8.7,13.1c1.1,5.4,0,10.9-3.1,15.4l-20.6,30.8
			C1278.5,195.5,1272,198.7,1265.4,198.7z M1286,136.8c-0.7,0-1.4,0.1-2.1,0.2c-2.8,0.6-5.1,2.1-6.7,4.5l-20.6,30.8
			c-1.6,2.3-2.1,5.2-1.6,7.9c0.6,2.8,2.1,5.1,4.5,6.7c4.8,3.2,11.4,1.9,14.6-2.9l20.6-30.8c1.6-2.3,2.1-5.2,1.6-7.9
			c-0.6-2.8-2.1-5.1-4.5-6.7C1290.1,137.4,1288,136.8,1286,136.8z"/>
	</g>
	<g>
		<polygon points="1354.1,820.3 1300.4,753.6 1046,749.2 1046.2,739.2 1305.3,743.6 1361.9,814 		"/>
		<polygon points="1052.7,820.3 1044.9,814 1101.4,743.6 1360.6,739.2 1360.8,749.2 1106.3,753.6 		"/>
		<g class="st5">
			<path class="st2" d="M1341.8,721.5h-106.7c-9.3,0-16.9,7.5-16.9,16.9V791c0,9.3,7.5,16.9,16.9,16.9h80.4
				c21.4,0,38.7-17.3,38.7-38.7v-35.3C1354.2,727,1348.7,721.5,1341.8,721.5z"/>
			<path class="st2" d="M1065.4,721.5h106.7c9.3,0,16.9,7.5,16.9,16.9V791c0,9.3-7.5,16.9-16.9,16.9h-80.4
				c-21.4,0-38.7-17.3-38.7-38.7v-35.3C1053,727,1058.6,721.5,1065.4,721.5z"/>
		</g>
		<g>
			<path d="M1315.5,812.9h-80.4c-12.1,0-21.9-9.8-21.9-21.9v-52.7c0-12.1,9.8-21.9,21.9-21.9h106.7c9.6,0,17.4,7.8,17.4,17.4v35.3
				C1359.2,793.3,1339.6,812.9,1315.5,812.9z M1235.1,726.5c-6.5,0-11.9,5.3-11.9,11.9V791c0,6.5,5.3,11.9,11.9,11.9h80.4
				c18.6,0,33.7-15.1,33.7-33.7v-35.3c0-4.1-3.3-7.4-7.4-7.4H1235.1z"/>
			<path d="M1172.1,812.9h-80.4c-24.1,0-43.7-19.6-43.7-43.7v-35.3c0-9.6,7.8-17.4,17.4-17.4h106.7c12.1,0,21.9,9.8,21.9,21.9V791
				C1194,803.1,1184.2,812.9,1172.1,812.9z M1065.4,726.5c-4.1,0-7.4,3.3-7.4,7.4v35.3c0,18.6,15.1,33.7,33.7,33.7h80.4
				c6.5,0,11.9-5.3,11.9-11.9v-52.7c0-6.5-5.3-11.9-11.9-11.9H1065.4z"/>
			<rect x="1189.2" y="746" width="27.4" height="10"/>
		</g>
		<rect x="1038.9" y="735.8" width="14.3" height="18.2"/>
		
			<rect x="1353.5" y="735.8" transform="matrix(-1 -4.490864e-11 4.490864e-11 -1 2721.3389 1489.9138)" width="14.3" height="18.2"/>
	</g>
	<path d="M419.4,817.9H32.2v-265h387.3V817.9z M42.2,807.9h367.3v-245H42.2V807.9z"/>
	<g>
		<path d="M143.7,562.5H60.4v-30.9h83.2V562.5z M70.4,552.5h63.2v-10.9H70.4V552.5z"/>
		<path d="M391.2,562.5h-83.2v-30.9h83.2V562.5z M317.9,552.5h63.2v-10.9h-63.2V552.5z"/>
	</g>
	<path d="M286.7,561.9H164.9v-25.4c0-16.5,19-29.4,43.2-29.4h35.5c24.2,0,43.2,12.9,43.2,29.4V561.9z M174.9,551.9h101.9v-15.4
		c0-10.5-15.2-19.4-33.2-19.4h-35.5c-18,0-33.2,8.9-33.2,19.4V551.9z"/>
	<polygon class="st3" points="278.7,657 251.2,657 251.2,629.6 200.4,629.6 200.4,657 172.9,657 172.9,707.9 200.4,707.9 
		200.4,735.3 251.2,735.3 251.2,707.9 278.7,707.9 	"/>
</g>
</svg>
