<?xml version="1.0"?>
<svg xmlns="http://www.w3.org/2000/svg" viewBox="0 0 512 512" width="512" height="512"><g id="Outline"><path d="M32,288H320V272H32V256H320V240H252.133L269.4,199.717a31.794,31.794,0,0,0,24.392-17.406l9.366-18.734A8,8,0,0,0,296,152H254.833a31.825,31.825,0,0,0-28.622,17.689l-7.136,14.272L213.9,158.638c-.023-.113-.048-.225-.076-.336a39.934,39.934,0,0,0-38.8-30.3H159.978A39.788,39.788,0,0,0,168,104V80a39.986,39.986,0,0,0-54.106-37.424A27.991,27.991,0,1,0,88,87.71V104a39.788,39.788,0,0,0,8.022,24H88a39.979,39.979,0,0,0-38.738,30.006l15.494,3.988A23.983,23.983,0,0,1,88,144H99.719l29.625,44.438A8,8,0,0,0,136,192c.165,0,.332,0,.5-.016a8,8,0,0,0,6.658-4.406L164.944,144H175.02a23.956,23.956,0,0,1,23.239,18.023l9.652,47.208L194.725,240h-4.69l-8.415-29.466a42.011,42.011,0,0,0-7.963-48.191l-11.314,11.314a25.941,25.941,0,0,1,0,36.686A8,8,0,0,0,160,216v24H96V168H80v72H64V176H48v64H24a8,8,0,0,0-8,8V456a8,8,0,0,0,8,8H344V448H32Zm72.208-180.894L121.733,89.58A84.307,84.307,0,0,0,152,95.953V104a24,24,0,0,1-47.792,3.106ZM152,79.972a68.173,68.173,0,0,1-28.422-7.127,8,8,0,0,0-9.234,1.5L104,84.686V80a24,24,0,0,1,48-.028ZM80,60a11.993,11.993,0,0,1,20.217-8.736A39.975,39.975,0,0,0,88.9,71.579,12.009,12.009,0,0,1,80,60Zm55.01,108.092L118.948,144h28.108Zm105.511,8.753A15.914,15.914,0,0,1,254.833,168h28.223l-3.577,7.155A15.914,15.914,0,0,1,265.167,184H236.944ZM229.275,200h22.593l-17.143,40H212.132Z"/><rect x="48" y="312" width="16" height="16"/><rect x="48" y="344" width="16" height="64"/><path d="M184,424h32a8,8,0,0,0,8-8V392h24a8,8,0,0,0,8-8V352a8,8,0,0,0-8-8H224V320a8,8,0,0,0-8-8H184a8,8,0,0,0-8,8v24H152a8,8,0,0,0-8,8v32a8,8,0,0,0,8,8h24v24A8,8,0,0,0,184,424Zm-24-48V360h24a8,8,0,0,0,8-8V328h16v24a8,8,0,0,0,8,8h24v16H216a8,8,0,0,0-8,8v24H192V384a8,8,0,0,0-8-8Z"/><path d="M456,176h-8.022A39.788,39.788,0,0,0,456,152V128a40.045,40.045,0,0,0-40-40H384a24,24,0,0,0-8,46.624V152a39.788,39.788,0,0,0,8.022,24H376a40.045,40.045,0,0,0-40,40V344a8,8,0,0,0,8,8h24v97.376A24,24,0,0,0,376,496h80a8,8,0,0,0,8-8V416H448v32H424V336H408V448H384V320h64v80h16V352h24a8,8,0,0,0,8-8V216A40.045,40.045,0,0,0,456,176Zm-72-72h32a24.028,24.028,0,0,1,24,24v16H419.313l-21.656-21.657A8,8,0,0,0,392,120h-8a8,8,0,0,1,0-16Zm8,48V139.313l18.343,18.344A8,8,0,0,0,416,160h22.624A24,24,0,0,1,392,152Zm56,328H424V464h24Zm-40,0H376a8,8,0,0,1,0-16h32ZM368,336H352V320h16Zm16-32V216H368v88H352V216a24.028,24.028,0,0,1,24-24h80a24.028,24.028,0,0,1,24,24v88H464V216H448v88Zm80,32V320.084l16,.166V336Z"/><path d="M203.562,86.656,224,100.281V112a24.028,24.028,0,0,0,24,24h64a24.028,24.028,0,0,0,24-24V40a24.028,24.028,0,0,0-24-24H248a24.028,24.028,0,0,0-24,24V59.719L203.562,73.344a8,8,0,0,0,0,13.312Zm32.876-16A8,8,0,0,0,240,64V40a8.009,8.009,0,0,1,8-8h64a8.009,8.009,0,0,1,8,8v72a8.009,8.009,0,0,1-8,8H248a8.009,8.009,0,0,1-8-8V96a8,8,0,0,0-3.562-6.656L222.422,80Z"/><rect x="272" y="80" width="16" height="24"/><rect x="272" y="48" width="16" height="16"/></g></svg>
