<?xml version="1.0" ?><svg viewBox="0 0 64 64" xmlns="http://www.w3.org/2000/svg"><title/><g id="Icons"><path d="M53,35V27a2.006,2.006,0,0,0-2-2H41.549V35Z" style="fill:#4889a0"/><path d="M40.041,7.154A3.974,3.974,0,0,0,39,7a3.89,3.89,0,0,0-.461.047c-1.32,3.329-1.239,7.133,1.272,9.87a3.92,3.92,0,0,0,1.111-.421C42.473,13.258,40.921,10.563,40.041,7.154Z" style="fill:#febd73"/><path d="M40.041,7.154c.88,3.409,2.432,6.1.881,9.342A3.988,3.988,0,0,0,43,13V11A3.99,3.99,0,0,0,40.041,7.154Z" style="fill:#fedc96"/><path d="M37.748,7.226A3.974,3.974,0,0,0,35,11v2a3.981,3.981,0,0,0,2.089,3.493C35.753,13.4,34.146,10.315,37.748,7.226Z" style="fill:#fab06b"/><path d="M39.811,16.917c-2.511-2.737-2.592-6.541-1.272-9.87a3.987,3.987,0,0,0-.791.179c-3.6,3.089-1.995,6.178-.659,9.267A3.953,3.953,0,0,0,39,17,4.013,4.013,0,0,0,39.811,16.917Z" style="fill:#febd73"/><path d="M41,21H37a8,8,0,0,0-8,8v6h6.4C33.032,29.363,33.927,21.786,41,21Z" style="fill:#fab06b"/><path d="M42.19,21.1A8.05,8.05,0,0,0,41,21c-7.073.786-7.968,8.363-5.6,14H47.468C47.524,29.9,46.4,25.268,42.19,21.1Z" style="fill:#febd73"/><path d="M49,29a7.992,7.992,0,0,0-6.81-7.9c4.208,4.17,5.334,8.8,5.278,13.9H49Z" style="fill:#fedc96"/><path d="M33,36a1,1,0,0,1-1-1V31a1,1,0,0,1,2,0v4A1,1,0,0,1,33,36Z" style="fill:#fc8e52"/><path d="M45,30a1,1,0,0,0-1,1v4a1,1,0,0,0,2,0V31A1,1,0,0,0,45,30Z" style="fill:#fc8e52"/><path d="M21,54.943h8.092C29.448,50.444,30.6,45.6,28,43c-.192-.32-.368-.635-.536-.948q-3.256.474-6.464,1.109Z" style="fill:#1cadb5"/><path d="M21,39v4.161q3.207-.63,6.464-1.109A18.411,18.411,0,0,1,26.151,39Z" style="fill:#2e979d"/><path d="M53.341,40.791c.208-.608.426-1.207.659-1.791H26.151a18.411,18.411,0,0,0,1.313,3.052A136.3,136.3,0,0,1,53.341,40.791Z" style="fill:#1cadb5"/><path d="M27.464,42.052c.168.313.344.628.536.948,2.6,2.6,1.448,7.444,1.092,11.943H50.011a112.508,112.508,0,0,1,3.33-14.152A136.3,136.3,0,0,0,27.464,42.052Z" style="fill:#00c8c8"/><path d="M54.943,39H54c-.233.584-.451,1.183-.659,1.791.537.025,1.069.059,1.6.091Z" style="fill:#00c8c8"/><path d="M53.341,40.791a112.508,112.508,0,0,0-3.33,14.152h2.81a2.06,2.06,0,0,0,2.122-1.993V40.882C54.41,40.85,53.878,40.816,53.341,40.791Z" style="fill:#64e1dc"/><path d="M19,35v4h7.151a15.3,15.3,0,0,1-.727-4Z" style="fill:#4889a0"/><path d="M47,35H25.424a15.3,15.3,0,0,0,.727,4H53C52,36,50,35,47,35Z" style="fill:#5d99af"/><path d="M47,35c3,0,5,1,6,4h4V35Z" style="fill:#63a5b7"/><path d="M17,17V15a3.984,3.984,0,0,0-2.2-3.556c-1.364,3-1.575,6.454.556,8.778A3.984,3.984,0,0,0,17,17Z" style="fill:#ff8680"/><path d="M14.8,11.444A3.949,3.949,0,0,0,13,11a4,4,0,0,0-4,4v2a3.985,3.985,0,0,0,6.351,3.222C13.22,17.9,13.431,14.443,14.8,11.444Z" style="fill:#e77973"/><path d="M25,48c0-2-3-1-4-1-2.8-8.408,2.245-16.814-5.231-21.961C15.516,25.015,15.26,25,15,25H11a7.969,7.969,0,0,0-6.92,4L17,49v8a2,2,0,0,0,2,2h6a1.893,1.893,0,0,0,.228-.023C25.329,55.241,25,51.455,25,48Z" style="fill:#e77973"/><path d="M25,43H23V33a8,8,0,0,0-7.231-7.961C23.245,30.186,18.2,38.592,21,47c1,0,4-1,4,1,0,3.455.329,7.241.228,10.977A1.994,1.994,0,0,0,27,57V45A2.006,2.006,0,0,0,25,43Z" style="fill:#ff8680"/><path d="M10,60a1,1,0,0,1-1-1V49a1,1,0,0,1,2,0V59A1,1,0,0,1,10,60Z" style="fill:#76838b"/><path d="M13,60H7a1,1,0,0,1,0-2h6a1,1,0,0,1,0,2Z" style="fill:#667075"/><polygon points="59 15 59 19 53 19 53 15 49 15 49 9 53 9 53 5 59 5 59 9 63 9 63 15 59 15" style="fill:#00c8c8"/><path d="M22,48.06a1.05,1.05,0,0,0-1.05,1.05V59h2.1V49.11A1.05,1.05,0,0,0,22,48.06Z" style="fill:#c76863"/><path d="M20,31a3.009,3.009,0,0,0-3-3H12.915C17.243,33.392,16.686,40.436,20,46.4Z" style="fill:#63a5b7"/><path d="M20,46.4V47a2.772,2.772,0,0,1-.18,1,3,3,0,0,1-1.45,1.66h-.01c-.29,0-.59-.01-.88-.02-.39-.01-.79-.03-1.18-.06A12.535,12.535,0,0,1,9,47c-5.63-3.75-5.98-13.66-.23-19h4.15C17.24,33.39,16.69,40.44,20,46.4Z" style="fill:#5d99af"/><path d="M8.775,28H3a3.009,3.009,0,0,0-3,3V47a3.009,3.009,0,0,0,3,3H17a2.942,2.942,0,0,0,1.355-.341C15.161,49.622,11.911,49.329,9,47,3.373,43.249,3.024,33.342,8.775,28Z" style="fill:#4889a0"/><path d="M24,49a.973.973,0,0,1-.43.8c-.92-.09-1.86-.12-2.82-.13A5.873,5.873,0,0,0,21,48h2A1,1,0,0,1,24,49Z" style="fill:#5d99af"/><path d="M21,48a5.873,5.873,0,0,1-.25,1.67c-.79,0-1.58,0-2.38-.01A3,3,0,0,0,19.82,48Z" style="fill:#4889a0"/><path d="M19.82,48a3,3,0,0,1-1.45,1.66h-.01c-.29,0-.59-.01-.88-.02-.39-.01-.79-.03-1.18-.06s-.78-.07-1.17-.12A.91.91,0,0,1,15,49a1,1,0,0,1,1-1Z" style="fill:#5d99af"/><path d="M15.129,49.464A.988.988,0,0,0,16,50h4.643c.039-.108.075-.216.107-.326A46.75,46.75,0,0,1,15.129,49.464Z" style="fill:#4889a0"/><path d="M23.573,49.8c-.918-.092-1.864-.115-2.823-.123-.032.11-.068.218-.107.326H23A.97.97,0,0,0,23.573,49.8Z" style="fill:#4889a0"/><line style="fill:none;stroke:#4889a0;stroke-linecap:round;stroke-linejoin:round;stroke-width:2px" x1="22" x2="22" y1="59" y2="49"/><rect height="10" rx="4" style="fill:none;stroke:#4889a0;stroke-linecap:round;stroke-linejoin:round;stroke-width:2px" width="8" x="9" y="11"/><path d="M4.08,29A7.969,7.969,0,0,1,11,25h4a8,8,0,0,1,8,8V43h2a2.006,2.006,0,0,1,2,2V59" style="fill:none;stroke:#4889a0;stroke-linecap:round;stroke-linejoin:round;stroke-width:2px"/><rect height="20" rx="2" style="fill:none;stroke:#4889a0;stroke-linecap:round;stroke-linejoin:round;stroke-width:2px" width="18" x="1" y="29"/><line style="fill:none;stroke:#4889a0;stroke-linecap:round;stroke-linejoin:round;stroke-width:2px" x1="10" x2="10" y1="49" y2="59"/><line style="fill:none;stroke:#4889a0;stroke-linecap:round;stroke-linejoin:round;stroke-width:2px" x1="16" x2="23" y1="49" y2="49"/><line style="fill:none;stroke:#4889a0;stroke-linecap:round;stroke-linejoin:round;stroke-width:2px" x1="17" x2="17" y1="59" y2="49"/><line style="fill:none;stroke:#4889a0;stroke-linecap:round;stroke-linejoin:round;stroke-width:2px" x1="7" x2="13" y1="59" y2="59"/><polyline points="27 35 57 35 57 39 27 39" style="fill:none;stroke:#4889a0;stroke-linecap:round;stroke-linejoin:round;stroke-width:2px"/><path d="M31,55H53a2,2,0,0,0,2-2V39" style="fill:none;stroke:#4889a0;stroke-linecap:round;stroke-linejoin:round;stroke-width:2px"/><polygon points="59 15 59 19 53 19 53 15 49 15 49 9 53 9 53 5 59 5 59 9 63 9 63 15 59 15" style="fill:none;stroke:#4889a0;stroke-linecap:round;stroke-linejoin:round;stroke-width:2px"/><rect height="10" rx="4" style="fill:none;stroke:#4889a0;stroke-linecap:round;stroke-linejoin:round;stroke-width:2px" width="8" x="35" y="7"/><path d="M29,35V29a8,8,0,0,1,8-8h4a8,8,0,0,1,8,8v6" style="fill:none;stroke:#4889a0;stroke-linecap:round;stroke-linejoin:round;stroke-width:2px"/><line style="fill:none;stroke:#4889a0;stroke-linecap:round;stroke-linejoin:round;stroke-width:2px" x1="33" x2="33" y1="35" y2="31"/><line style="fill:none;stroke:#4889a0;stroke-linecap:round;stroke-linejoin:round;stroke-width:2px" x1="45" x2="45" y1="35" y2="31"/><path d="M47.92,25H51a2.006,2.006,0,0,1,2,2v8" style="fill:none;stroke:#4889a0;stroke-linecap:round;stroke-linejoin:round;stroke-width:2px"/></g></svg>