<svg xmlns="http://www.w3.org/2000/svg" xmlns:xlink="http://www.w3.org/1999/xlink" viewBox="0 0 736 574.85"><defs><style>.cls-1{fill:url(#Безымянный_градиент_263);}.cls-2{fill:url(#Безымянный_градиент_5);}.cls-18,.cls-3,.cls-31,.cls-37,.cls-5{fill:none;stroke-miterlimit:10;}.cls-3{stroke-width:1.19px;stroke:url(#Безымянный_градиент_2);}.cls-4{fill:url(#Безымянный_градиент_17);}.cls-5{stroke-width:3.44px;stroke:url(#Безымянный_градиент_164);}.cls-6{fill:url(#Безымянный_градиент_5-2);}.cls-7{fill:url(#Безымянный_градиент_5-3);}.cls-8{fill:url(#Безымянный_градиент_5-4);}.cls-9{fill:url(#Безымянный_градиент_5-5);}.cls-10{fill:url(#Безымянный_градиент_5-6);}.cls-11{fill:url(#Безымянный_градиент_5-7);}.cls-12{fill:url(#Безымянный_градиент_18);}.cls-13{fill:url(#Безымянный_градиент_33);}.cls-14{fill:url(#Безымянный_градиент_33-2);}.cls-15{fill:url(#Безымянный_градиент_33-3);}.cls-16{fill:url(#Безымянный_градиент_17-2);}.cls-17{fill:url(#Безымянный_градиент_33-4);}.cls-18{stroke-width:2px;stroke:url(#Безымянный_градиент_33-5);}.cls-19{fill:url(#Безымянный_градиент_33-6);}.cls-20{fill:url(#Безымянный_градиент_17-3);}.cls-21{fill:url(#Безымянный_градиент_33-7);}.cls-22{fill:url(#Безымянный_градиент_11);}.cls-23{fill:url(#Безымянный_градиент_144);}.cls-24{fill:url(#Безымянный_градиент_170);}.cls-25{fill:#fff;}.cls-26{fill:#1f1844;}.cls-27{fill:url(#Безымянный_градиент_216);}.cls-28{fill:url(#Безымянный_градиент_40);}.cls-29{fill:url(#Безымянный_градиент_250);}.cls-30{fill:url(#Безымянный_градиент_250-2);}.cls-31{stroke:#fff;stroke-width:1.68px;}.cls-31,.cls-37{stroke-linecap:round;}.cls-32{fill:url(#Безымянный_градиент_48);}.cls-33{fill:url(#Безымянный_градиент_123);}.cls-34{fill:url(#Безымянный_градиент_48-2);}.cls-35{fill:url(#Безымянный_градиент_48-3);}.cls-36{fill:url(#Безымянный_градиент_29);}.cls-37{stroke:#201f4f;stroke-width:7.87px;}.cls-38{fill:url(#Безымянный_градиент_29-2);}.cls-39{fill:url(#Безымянный_градиент_29-3);}.cls-40{fill:url(#Безымянный_градиент_29-4);}.cls-41{fill:url(#Безымянный_градиент_29-5);}.cls-42{fill:url(#Безымянный_градиент_29-6);}.cls-43{fill:url(#Безымянный_градиент_29-7);}.cls-44{fill:url(#Безымянный_градиент_29-8);}.cls-45{fill:url(#Безымянный_градиент_29-9);}.cls-46{fill:url(#Безымянный_градиент_29-10);}.cls-47{fill:url(#Безымянный_градиент_29-11);}.cls-48{fill:url(#Безымянный_градиент_29-12);}.cls-49{fill:url(#Безымянный_градиент_29-13);}.cls-50{fill:url(#Безымянный_градиент_29-14);}.cls-51{fill:url(#Безымянный_градиент_29-15);}.cls-52{fill:url(#Безымянный_градиент_29-16);}.cls-53{fill:url(#Безымянный_градиент_29-17);}.cls-54{fill:url(#Безымянный_градиент_29-18);}.cls-55{fill:url(#Безымянный_градиент_29-19);}.cls-56{fill:url(#Безымянный_градиент_29-20);}.cls-57{fill:url(#Безымянный_градиент_29-21);}.cls-58{fill:url(#Безымянный_градиент_170-2);}.cls-59{fill:url(#Безымянный_градиент_250-3);}.cls-60{fill:url(#Безымянный_градиент_123-2);}.cls-61{fill:url(#Безымянный_градиент_123-3);}.cls-62{fill:url(#Безымянный_градиент_170-3);}.cls-63{fill:url(#Безымянный_градиент_170-4);}</style><linearGradient id="Безымянный_градиент_263" x1="89.39" y1="291.91" x2="715.89" y2="291.91" gradientUnits="userSpaceOnUse"><stop offset="0" stop-color="#f0f2f5"/><stop offset="0.99" stop-color="#f5f7f8"/></linearGradient><linearGradient id="Безымянный_градиент_5" x1="96.98" y1="466" x2="65.38" y2="226.27" gradientUnits="userSpaceOnUse"><stop offset="0" stop-color="#1f1844"/><stop offset="0.99" stop-color="#3d3c99"/></linearGradient><linearGradient id="Безымянный_градиент_2" x1="95.39" y1="459.82" x2="67.6" y2="248.95" gradientUnits="userSpaceOnUse"><stop offset="0" stop-color="#3f3d9e"/><stop offset="0.99" stop-color="#423e9f"/></linearGradient><linearGradient id="Безымянный_градиент_17" x1="111.58" y1="377.82" x2="228.81" y2="350.88" gradientUnits="userSpaceOnUse"><stop offset="0.01" stop-color="#bbc0d9"/><stop offset="1" stop-color="#d6dbf8"/></linearGradient><linearGradient id="Безымянный_градиент_164" x1="-130.81" y1="357.97" x2="-41.11" y2="374.4" gradientTransform="translate(181.44 23.25) rotate(-10.18)" gradientUnits="userSpaceOnUse"><stop offset="0" stop-color="#bac6d8"/><stop offset="0.99" stop-color="#d6dbf8"/></linearGradient><linearGradient id="Безымянный_градиент_5-2" x1="94.75" y1="382.73" x2="58.8" y2="347.41" xlink:href="#Безымянный_градиент_5"/><linearGradient id="Безымянный_градиент_5-3" x1="93.6" y1="412.42" x2="51.77" y2="397.85" xlink:href="#Безымянный_градиент_5"/><linearGradient id="Безымянный_градиент_5-4" x1="96.72" y1="382.64" x2="134.77" y2="352.7" xlink:href="#Безымянный_градиент_5"/><linearGradient id="Безымянный_градиент_5-5" x1="93.95" y1="412.47" x2="130.88" y2="394.78" xlink:href="#Безымянный_градиент_5"/><linearGradient id="Безымянный_градиент_5-6" x1="100.55" y1="440.26" x2="51.38" y2="434.38" xlink:href="#Безымянный_градиент_5"/><linearGradient id="Безымянный_градиент_5-7" x1="95.09" y1="443.71" x2="128.68" y2="423.18" xlink:href="#Безымянный_градиент_5"/><linearGradient id="Безымянный_градиент_18" x1="107.68" y1="305.2" x2="96.19" y2="352.2" gradientUnits="userSpaceOnUse"><stop offset="0.01" stop-color="#3d3c99"/><stop offset="1" stop-color="#1f1844"/></linearGradient><linearGradient id="Безымянный_градиент_33" x1="-989.32" y1="66.68" x2="-974.14" y2="66.68" gradientTransform="translate(719.08 -379.73) rotate(-45.37)" gradientUnits="userSpaceOnUse"><stop offset="0" stop-color="#e0e4eb"/><stop offset="0.99" stop-color="#f3f6fd"/></linearGradient><linearGradient id="Безымянный_градиент_33-2" x1="-1448.53" y1="-354.69" x2="-1433.2" y2="-354.69" gradientTransform="translate(850.01 -856.71) rotate(-72.22)" xlink:href="#Безымянный_градиент_33"/><linearGradient id="Безымянный_градиент_33-3" x1="1085.2" y1="-317.88" x2="1100.41" y2="-317.88" gradientTransform="matrix(0.63, 0.78, -0.78, 0.63, -821.19, -286.84)" xlink:href="#Безымянный_градиент_33"/><linearGradient id="Безымянный_градиент_17-2" x1="116.03" y1="410.9" x2="131.87" y2="394.64" xlink:href="#Безымянный_градиент_17"/><linearGradient id="Безымянный_градиент_33-4" x1="1197.35" y1="-392.58" x2="1212.92" y2="-392.58" gradientTransform="matrix(0.5, 0.87, -0.77, 0.45, -794.7, -470.06)" xlink:href="#Безымянный_градиент_33"/><linearGradient id="Безымянный_градиент_33-5" x1="-230.24" y1="363.16" x2="-207.86" y2="363.16" gradientTransform="translate(231.76 1.14) rotate(-13.38)" xlink:href="#Безымянный_градиент_33"/><linearGradient id="Безымянный_градиент_33-6" x1="-1644.57" y1="-711.04" x2="-1628.66" y2="-711.04" gradientTransform="matrix(0.04, -0.93, 1, 0.04, 855.28, -1052.53)" xlink:href="#Безымянный_градиент_33"/><linearGradient id="Безымянный_градиент_17-3" x1="116.39" y1="436.41" x2="132.2" y2="418.88" xlink:href="#Безымянный_градиент_17"/><linearGradient id="Безымянный_градиент_33-7" x1="1326.33" y1="-548.47" x2="1343.56" y2="-548.47" gradientTransform="matrix(0.35, 0.94, -0.74, 0.28, -756.37, -677.76)" xlink:href="#Безымянный_градиент_33"/><linearGradient id="Безымянный_градиент_11" x1="110.15" y1="304.52" x2="98.66" y2="351.52" gradientUnits="userSpaceOnUse"><stop offset="0" stop-color="#e6eaf1"/><stop offset="0.99" stop-color="#f3f6fd"/></linearGradient><linearGradient id="Безымянный_градиент_144" x1="63.16" y1="510.74" x2="150.74" y2="490.62" gradientUnits="userSpaceOnUse"><stop offset="0.11" stop-color="#8988d5"/><stop offset="0.56" stop-color="#9d9ce8"/><stop offset="1" stop-color="#a7a5ee"/></linearGradient><linearGradient id="Безымянный_градиент_170" x1="284.82" y1="240.76" x2="360.9" y2="240.76" gradientUnits="userSpaceOnUse"><stop offset="0.01" stop-color="#bbbfd9"/><stop offset="1" stop-color="#d6dbf8"/></linearGradient><linearGradient id="Безымянный_градиент_216" x1="534.68" y1="525.72" x2="534.68" y2="248.62" gradientUnits="userSpaceOnUse"><stop offset="0" stop-color="#201f4f"/><stop offset="0.39" stop-color="#3d3c99"/><stop offset="1" stop-color="#403da0"/></linearGradient><linearGradient id="Безымянный_градиент_40" x1="621.72" y1="393.14" x2="646.91" y2="395.66" gradientUnits="userSpaceOnUse"><stop offset="0.11" stop-color="#343381"/><stop offset="0.56" stop-color="#3d3c99"/><stop offset="1" stop-color="#403da0"/></linearGradient><linearGradient id="Безымянный_градиент_250" x1="554.19" y1="303.25" x2="796.6" y2="303.25" gradientUnits="userSpaceOnUse"><stop offset="0" stop-color="#a7a5ee"/><stop offset="0.44" stop-color="#9d9ce8"/><stop offset="0.89" stop-color="#8988d5"/></linearGradient><linearGradient id="Безымянный_градиент_250-2" x1="443.68" y1="394.33" x2="602.19" y2="394.33" xlink:href="#Безымянный_градиент_250"/><linearGradient id="Безымянный_градиент_48" x1="547.62" y1="193.02" x2="505.29" y2="234.57" gradientUnits="userSpaceOnUse"><stop offset="0" stop-color="#a04400"/><stop offset="1" stop-color="#753200"/></linearGradient><linearGradient id="Безымянный_градиент_123" x1="559.92" y1="194.76" x2="445.9" y2="169.36" gradientUnits="userSpaceOnUse"><stop offset="0" stop-color="#753200"/><stop offset="1" stop-color="#a04400"/></linearGradient><linearGradient id="Безымянный_градиент_48-2" x1="511.91" y1="203.6" x2="535.04" y2="216.45" xlink:href="#Безымянный_градиент_48"/><linearGradient id="Безымянный_градиент_48-3" x1="-3306.9" y1="793.63" x2="-3318.16" y2="804.68" gradientTransform="translate(3887.86 -482.68) rotate(2.53)" xlink:href="#Безымянный_градиент_48"/><linearGradient id="Безымянный_градиент_29" x1="2533.98" y1="-16.4" x2="2658.37" y2="-73.98" gradientTransform="matrix(-0.99, 0.17, 0.17, 0.99, 3090.51, -261.67)" gradientUnits="userSpaceOnUse"><stop offset="0.28" stop-color="#201f4f"/><stop offset="1" stop-color="#201f4f"/></linearGradient><linearGradient id="Безымянный_градиент_29-2" x1="2609.48" y1="-48.67" x2="2623.52" y2="-125.65" gradientTransform="matrix(-1, 0, 0, 1, 3135.91, 178.95)" xlink:href="#Безымянный_градиент_29"/><linearGradient id="Безымянный_градиент_29-3" x1="2584.45" y1="-72.97" x2="2601.41" y2="-72.97" gradientTransform="matrix(-1, 0, 0, 1, 3138.29, 174.66)" xlink:href="#Безымянный_градиент_29"/><linearGradient id="Безымянный_градиент_29-4" x1="2586.45" y1="-57.71" x2="2603.41" y2="-57.71" gradientTransform="matrix(-1, 0, 0, 1, 3140.91, 174.78)" xlink:href="#Безымянный_градиент_29"/><linearGradient id="Безымянный_градиент_29-5" x1="2580.52" y1="-42.28" x2="2600.15" y2="-42.28" gradientTransform="matrix(-1, 0, 0, 1, 3143.45, 173.78)" xlink:href="#Безымянный_градиент_29"/><linearGradient id="Безымянный_градиент_29-6" x1="2572.01" y1="-57.42" x2="2588.96" y2="-57.42" gradientTransform="matrix(-1, 0, 0, 1, 3140.75, 172.33)" xlink:href="#Безымянный_градиент_29"/><linearGradient id="Безымянный_градиент_29-7" x1="2566.42" y1="-74.15" x2="2583.38" y2="-74.15" gradientTransform="matrix(-1, 0, 0, 1, 3137.83, 171.63)" xlink:href="#Безымянный_градиент_29"/><linearGradient id="Безымянный_градиент_29-8" x1="2587.83" y1="-27.59" x2="2604.79" y2="-27.59" gradientTransform="matrix(-1, 0, 0, 1, 3146.03, 174.58)" xlink:href="#Безымянный_градиент_29"/><linearGradient id="Безымянный_градиент_29-9" x1="2647.22" y1="-92.44" x2="2662.23" y2="-92.44" gradientTransform="matrix(-1, 0, 0, 1, 3135.89, 185.41)" xlink:href="#Безымянный_градиент_29"/><linearGradient id="Безымянный_градиент_29-10" x1="2648.61" y1="-103.45" x2="2663.62" y2="-103.45" gradientTransform="matrix(-1, 0, 0, 1, 3134.04, 185.81)" xlink:href="#Безымянный_градиент_29"/><linearGradient id="Безымянный_градиент_29-11" x1="2648.61" y1="-114.71" x2="2663.62" y2="-114.71" gradientTransform="matrix(-1, 0, 0, 1, 3132.14, 185.97)" xlink:href="#Безымянный_градиент_29"/><linearGradient id="Безымянный_градиент_29-12" x1="2641.11" y1="-123.49" x2="2656.12" y2="-123.49" gradientTransform="matrix(-1, 0, 0, 1, 3130.54, 184.82)" xlink:href="#Безымянный_градиент_29"/><linearGradient id="Безымянный_градиент_29-13" x1="2632.01" y1="-130.99" x2="2647.02" y2="-130.99" gradientTransform="matrix(-1, 0, 0, 1, 3129.14, 183.39)" xlink:href="#Безымянный_градиент_29"/><linearGradient id="Безымянный_градиент_29-14" x1="2618.15" y1="-134.13" x2="2633.16" y2="-134.13" gradientTransform="matrix(-1, 0, 0, 1, 3128.41, 181.09)" xlink:href="#Безымянный_градиент_29"/><linearGradient id="Безымянный_градиент_29-15" x1="2606.89" y1="-134.13" x2="2621.9" y2="-134.13" gradientTransform="matrix(-1, 0, 0, 1, 3128.24, 179.18)" xlink:href="#Безымянный_градиент_29"/><linearGradient id="Безымянный_градиент_29-16" x1="2597.28" y1="-129.72" x2="2612.28" y2="-129.72" gradientTransform="matrix(-1, 0, 0, 1, 3128.85, 177.49)" xlink:href="#Безымянный_градиент_29"/><linearGradient id="Безымянный_градиент_29-17" x1="2587.43" y1="-125.19" x2="2602.44" y2="-125.19" gradientTransform="matrix(-1, 0, 0, 1, 3129.48, 175.76)" xlink:href="#Безымянный_градиент_29"/><linearGradient id="Безымянный_градиент_29-18" x1="2584.46" y1="-80.09" x2="2599.47" y2="-80.09" gradientTransform="matrix(-1, 0, 0, 1, 3137.07, 174.6)" xlink:href="#Безымянный_градиент_29"/><linearGradient id="Безымянный_градиент_29-19" x1="2579.58" y1="-90.92" x2="2594.59" y2="-90.92" gradientTransform="matrix(-1, 0, 0, 1, 3135.17, 173.93)" xlink:href="#Безымянный_градиент_29"/><linearGradient id="Безымянный_градиент_29-20" x1="2578.19" y1="-103.45" x2="2593.2" y2="-103.45" gradientTransform="matrix(-1, 0, 0, 1, 3133.03, 173.88)" xlink:href="#Безымянный_градиент_29"/><linearGradient id="Безымянный_градиент_29-21" x1="2581.21" y1="-114.71" x2="2596.22" y2="-114.71" gradientTransform="matrix(-1, 0, 0, 1, 3131.16, 174.55)" xlink:href="#Безымянный_градиент_29"/><linearGradient id="Безымянный_градиент_170-2" x1="408.04" y1="252.1" x2="458.95" y2="252.1" xlink:href="#Безымянный_градиент_170"/><linearGradient id="Безымянный_градиент_250-3" x1="376.44" y1="358.94" x2="432.24" y2="358.94" xlink:href="#Безымянный_градиент_250"/><linearGradient id="Безымянный_градиент_123-2" x1="379.99" y1="253.78" x2="458.95" y2="253.78" xlink:href="#Безымянный_градиент_123"/><linearGradient id="Безымянный_градиент_123-3" x1="438.73" y1="298.49" x2="497.63" y2="298.49" xlink:href="#Безымянный_градиент_123"/><linearGradient id="Безымянный_градиент_170-3" x1="52.77" y1="123.44" x2="181.18" y2="123.44" xlink:href="#Безымянный_градиент_170"/><linearGradient id="Безымянный_градиент_170-4" x1="228.16" y1="81.77" x2="331.87" y2="81.77" xlink:href="#Безымянный_градиент_170"/></defs><title>01</title><g id="Слой_1" data-name="Слой 1"><path class="cls-1" d="M694.5,304.4c-55-112.47-212.37-277.21-416.84-277.63-213.36-.44-234,211.17-119,270S105.51,428.9,225.71,502.56c121.66,74.56,381.67,67.56,445.67,9.56S718.27,353,694.5,304.4Z"/><path class="cls-2" d="M97.33,467.71s34.78-38.71,31.09-54,17.89-33.79,18.31-56c.48-25.17-13-18.44-17.62-29.2-6.9-16,8.46-30.08-14.76-36.18-15.85-4.17-27,4-25.55-15.65S83.15,232.82,70.45,224c-18.14-12.59-55.06-13.58-42.62,11.8,13.06,26.66,1.55,70.58-1.49,82.6C-5.86,445.5,97.33,467.71,97.33,467.71Z"/><path class="cls-3" d="M58.53,250.15c4,32.81,45.13,85.24,26.48,120.28s9.62,89.28,9.62,89.28"/><path class="cls-4" d="M202.72,394.41c-22.59,8,1.87,37.2-22.83,50.36s-56.36,19.83-57.82,13.44c-.1-.42-1.43-4.66-2.83-10.85-.32-1.43-.64-3-1-4.6-.08-.45-.17-.91-.26-1.38a125,125,0,0,1-1.87-14.95c0-.15,0-.31,0-.46-.12-2-.15-4-.12-6s.14-3.84.35-5.7c.73-7.11,2.77-13.66,6.93-18.36a19.66,19.66,0,0,1,3.61-3.23c17.16-11.94,24-6.14,23.89-23.78-.23-30.23,8.38-34.75,18.52-31.77s18.05,3.82,19.53-7.35-7.66-61,15.35-60.89c39.87.13,19.71,51,15.68,59.27-9.66,19.79,10.43,22.89,15.21,37.32S225.29,386.42,202.72,394.41Z"/><path class="cls-5" d="M117.65,501.65S111.58,446,154,414.81c19.16-14.09,54.78-64.4,51.56-118.82"/><path class="cls-6" d="M58.19,346.86c5.27-8.93,43.14,27.92,36.51,36S53.17,355.38,58.19,346.86Z"/><path class="cls-7" d="M48.63,397.12c.76-10.41,46.48,4.55,44.14,14.83S47.9,407,48.63,397.12Z"/><path class="cls-8" d="M134.94,351.2c8.1,6.34-31.89,40.78-39,33.15S127.23,345.16,134.94,351.2Z"/><path class="cls-9" d="M130.75,394.59c6.81,7.69-31.8,27-37.6,18.32S124.27,387.26,130.75,394.59Z"/><path class="cls-10" d="M51.66,434.52c-2-9.55,48.41-4.05,48.84,5.78S53.57,443.62,51.66,434.52Z"/><path class="cls-11" d="M128.3,423.4c5.22,8.84-30.89,30.89-35.09,21.26S123.32,415,128.3,423.4Z"/><path class="cls-12" d="M108.37,303.9c10.18.74-3,52-13,49.64S98.68,303.19,108.37,303.9Z"/><path class="cls-13" d="M62,344.43c5.27-8.93,43.14,27.92,36.51,36S57,352.94,62,344.43Z"/><path class="cls-14" d="M51.67,395c.76-10.41,46.48,4.55,44.14,14.83S50.95,404.9,51.67,395Z"/><path class="cls-15" d="M136.49,348.91c8.1,6.34-31.89,40.78-39,33.15S128.77,342.87,136.49,348.91Z"/><path class="cls-16" d="M117.2,412.28c.7-7,2.66-13.42,6.65-18,4.83-1,8.89-.77,10.66,1.23C138.29,399.75,128,407.63,117.2,412.28Z"/><path class="cls-17" d="M132.66,393c6.81,7.69-31.8,27-37.6,18.32S126.18,385.63,132.66,393Z"/><path class="cls-18" d="M98,341.44s1.16,26.63-2.37,49.87,5.37,62.58,19.85,75.15"/><path class="cls-19" d="M51.66,432.7c-2-9.55,48.41-4.05,48.84,5.78S53.57,441.8,51.66,432.7Z"/><path class="cls-20" d="M119,440.27c-.07-.44-.16-.9-.25-1.35A125.45,125.45,0,0,1,117,424.23c0-.15,0-.3,0-.46,8.23-4.55,17-6.85,19.34-2.91C139.24,425.83,129.18,434.93,119,440.27Z"/><path class="cls-21" d="M134.46,417.09c5.22,8.84-30.89,30.89-35.09,21.26S129.49,408.67,134.46,417.09Z"/><path class="cls-22" d="M110.84,303.22c10.18.74-3,52-13,49.64S101.15,302.52,110.84,303.22Z"/><path class="cls-23" d="M119.57,549.2H88.24a28.21,28.21,0,0,1-28-24.44L52.51,467.1A6.51,6.51,0,0,1,59,459.72h89.88a6.51,6.51,0,0,1,6.46,7.38l-7.77,57.66A28.21,28.21,0,0,1,119.57,549.2Z"/><rect class="cls-24" x="284.82" y="189.61" width="76.08" height="102.3" rx="3.87" ry="3.87"/><rect class="cls-25" x="291.2" y="197.16" width="63.32" height="87.21" rx="2.09" ry="2.09"/></g><g id="Слой_2" data-name="Слой 2"><path class="cls-26" d="M570.7,208.68s-104.05,19.07-143.52,32.09S283.82,461,280,497s122.62,15.67,122.62,15.67S571.52,215.35,570.7,208.68Z"/><path class="cls-27" d="M630.41,489.66c-4.38,32.39-52,37-107.5,38.74-1.68.84-62.9.47-91.41-9.13l1-219.34c.07-18.52,7.92-49.09,34.94-49.54,45.38-.75,129.55-7.67,162.51,2.51,7.53,27.06,13,57,.47,135.13C623.24,432.79,632.53,474.12,630.41,489.66Z"/><path class="cls-28" d="M617.92,266.51c10,30.18,8.79,47.68-4.62,96.51C591,444.37,627.63,486.14,550.11,527.17c47-2.68,76.57-9.93,80.3-37.5,2.12-15.55-7.17-56.87,0-101.62,9.25-57.58,26.51-104.63,3.56-132.44C627.62,247.91,614.53,256.31,617.92,266.51Z"/><path class="cls-29" d="M630.41,333c-11.84,2-48.38,6.87-59.81,1.78,1.19,11.32,2.41,31.38,2.41,31.38s-111.2.16-147.8,14.15c0-1.19-7.36-59.68-7.6-60.06.81-6.78,8.9-34.84,23.81-57.88C454,243,471.9,234.13,504.18,229.54l42.74-3s42.54-4.5,62.18,16.93S630.41,333,630.41,333Z"/><polygon class="cls-30" points="585.85 425.65 443.68 410.04 443.68 363.02 602.19 376.26 585.85 425.65"/><line class="cls-31" x1="570.7" y1="334.2" x2="566.72" y2="311.19"/><path class="cls-32" d="M503.89,233.42c14-4.34,32.16-13.7,43.54-37.62,0-.47-.07-.93-.11-1.37a69.21,69.21,0,0,1-.3-8.85c.12-.18.24-.37.34-.55-15.93,23.53-30.93,36-44.16,42.54l.39,3.22Z"/><path class="cls-33" d="M547.42,195.8c0-.47-.06-.92-.11-1.36-.08-.91-.14-2-.2-3.11a40.58,40.58,0,0,1-.1-5.75,4.08,4.08,0,0,0,.33-.55,53.42,53.42,0,0,0,6-12.74,17,17,0,0,0-1.19-12.48l0,0a13.69,13.69,0,0,0-6.95-6.66c-12.75-5.17-28.58-66.4-69.69-27.27-2.42-.23-14.32-2.38-19.65,2.92-4,4-2.37,24.21-2.37,24.22,1.5,6.17,4,11.79,4.48,17.47.65,7.72-3.07,20.27,2.27,33,7.62,18.21,26.67,23.82,38.47,24.28,1.13,0,2.19,0,3.17,0,.48,0,.91,0,1.34-.07l.4,3.23.41,4.13.38,3.66,1.14,12.74c14.44,6.47,33.49,1.19,43-12.34a30.13,30.13,0,0,0,2.79-5.69c-1.08-8.37-2.38-19.61-3.45-32.24C547.74,199.37,547.58,197.63,547.42,195.8Z"/><path class="cls-34" d="M503.58,230.8s31.44-9.26,44.3-29.73c-.15-1.69-.31-3.44-.46-5.26,0-.47-.06-.92-.11-1.36-.08-.91-.14-2-.2-3.11-16.77,19.07-31.91,30.13-45.27,36.31.48,0,.91,0,1.34-.07Z"/><path class="cls-35" d="M541.1,164.08s3.59-6.1,6.93-2-.53,11.9-.53,11.9Z"/><path class="cls-36" d="M451.84,156.25c1.83-3.15,4.42-21.33,8.05-25.61,2.58-3,11.58,8.1,16.13,7.31,13.6-2.36,28.05-8.77,47,1,2.92,1.5-5.53,16.11-.77,18.21,5.44,2.4,11,13.9,11,13.9s2.24-22.3,15.77-15.44c1.62-10.93.18-12.65-2-25.22-.74-4.33-4.13-18.25-6-22.5-10-22.09-41.38-23-60.59-18.13C414.4,106.43,447.17,153.92,451.84,156.25Z"/><path class="cls-37" d="M554.55,36.32l-3.87,1.5a2.24,2.24,0,0,0-1.35,1.54L549,40.62a2.21,2.21,0,0,1-1.86,1.67l-3,.35a2.2,2.2,0,0,0-1.71,3.11l.26.52a2.2,2.2,0,0,1-1.46,3.07l-1.77.43a2.22,2.22,0,0,0-1.62,2.64l.1.4a2.21,2.21,0,0,1-1,2.4c-2,1.17-5.31,3.19-5.54,3.62s1,2.24,1.93,3.64a2.15,2.15,0,0,1-.46,2.84c-1.78,1.47-4.36,3.82-3.75,4.62a31.68,31.68,0,0,0,5.06,3.69,2.08,2.08,0,0,1,.16,3.28l-2.6,2.4a2.09,2.09,0,0,0,.1,3.24l3.36,2.34a2.07,2.07,0,0,1,.29,3l-2.92,3.46a2.12,2.12,0,0,0-.1,2.67l3.22,4.08a2,2,0,0,1,.35,1.8l-1.75,6.51"/><path class="cls-37" d="M554.56,50.93l-4.15-.08a2.24,2.24,0,0,0-1.83.91l-.77,1a2.21,2.21,0,0,1-2.35.84l-2.89-.81a2.2,2.2,0,0,0-2.76,2.23l0,.58a2.2,2.2,0,0,1-2.51,2.28l-1.8-.27a2.22,2.22,0,0,0-2.5,1.83l-.06.41a2.21,2.21,0,0,1-1.86,1.83c-2.26.33-6.12.94-6.5,1.25s.05,2.45.41,4.1a2.15,2.15,0,0,1-1.5,2.45c-2.21.69-5.48,1.88-5.22,2.86a31.68,31.68,0,0,0,3.28,5.33,2.08,2.08,0,0,1-1.1,3.1L517.18,82a2.09,2.09,0,0,0-1.14,3l2.22,3.44a2.07,2.07,0,0,1-.88,2.93l-4,2.1A2.12,2.12,0,0,0,512.27,96l1.44,5a2,2,0,0,1-.36,1.8l-4.09,5.36"/><path class="cls-37" d="M536.08,31.43l-3.87,1.5a2.24,2.24,0,0,0-1.35,1.54l-.32,1.26a2.21,2.21,0,0,1-1.86,1.67l-3,.35A2.2,2.2,0,0,0,524,40.85l.26.52a2.2,2.2,0,0,1-1.46,3.07l-1.77.43a2.22,2.22,0,0,0-1.62,2.64l.1.4a2.21,2.21,0,0,1-1,2.4c-2,1.17-5.31,3.19-5.54,3.62s1,2.24,1.93,3.64a2.15,2.15,0,0,1-.46,2.84c-1.78,1.47-4.36,3.82-3.75,4.62a31.68,31.68,0,0,0,5.06,3.69,2.08,2.08,0,0,1,.16,3.28l-2.6,2.4a2.09,2.09,0,0,0,.1,3.24L516.75,80a2.07,2.07,0,0,1,.29,3l-2.92,3.46a2.12,2.12,0,0,0-.1,2.67l3.22,4.08a2,2,0,0,1,.35,1.8l-1.75,6.51"/><path class="cls-37" d="M520,30.75l-3.16,2.69a2.24,2.24,0,0,0-.77,1.89l.11,1.29a2.21,2.21,0,0,1-1.21,2.18l-2.71,1.3a2.2,2.2,0,0,0-.6,3.5l.42.4a2.2,2.2,0,0,1-.37,3.37l-1.53,1a2.22,2.22,0,0,0-.66,3l.22.34a2.21,2.21,0,0,1-.19,2.6c-1.47,1.74-4,4.75-4.05,5.24s1.66,1.8,3,2.81a2.15,2.15,0,0,1,.49,2.83c-1.2,2-2.87,5-2,5.59a31.68,31.68,0,0,0,6,1.83,2.08,2.08,0,0,1,1.22,3l-1.67,3.12a2.09,2.09,0,0,0,1.16,3L517.59,83a2.07,2.07,0,0,1,1.27,2.78L517.25,90a2.12,2.12,0,0,0,.77,2.55l4.38,2.8a2,2,0,0,1,.92,1.59l.48,6.73"/><path class="cls-37" d="M487.15,38.14l4.15.13a2.24,2.24,0,0,1,1.78,1l.72,1.08a2.21,2.21,0,0,0,2.31.95l2.93-.67A2.2,2.2,0,0,1,501.68,43l-.07.57A2.2,2.2,0,0,0,504,46l1.81-.18a2.22,2.22,0,0,1,2.4,1.95l0,.41A2.21,2.21,0,0,0,510,50.05c2.24.44,6.07,1.24,6.43,1.56s-.17,2.44-.61,4.08a2.15,2.15,0,0,0,1.38,2.52c2.17.79,5.38,2.14,5.07,3.1a31.68,31.68,0,0,1-3.54,5.16,2.08,2.08,0,0,0,.95,3.15L523,71a2.09,2.09,0,0,1,1,3.09l-2.38,3.33a2.07,2.07,0,0,0,.74,3l3.9,2.29a2.12,2.12,0,0,1,1,2.48l-1.68,4.92a2,2,0,0,0,.27,1.82l3.82,5.55"/><path class="cls-37" d="M502.12,32.12,506,33.59a2.24,2.24,0,0,1,1.36,1.53l.32,1.26A2.21,2.21,0,0,0,509.55,38l3,.32a2.2,2.2,0,0,1,1.73,3.1L514,42A2.2,2.2,0,0,0,515.49,45l1.77.42a2.22,2.22,0,0,1,1.63,2.63l-.1.4a2.21,2.21,0,0,0,1,2.39c2,1.15,5.33,3.16,5.57,3.58s-1,2.25-1.91,3.66a2.15,2.15,0,0,0,.48,2.83c1.79,1.46,4.39,3.79,3.78,4.6a31.68,31.68,0,0,1-5,3.72,2.08,2.08,0,0,0-.14,3.28l2.61,2.39a2.09,2.09,0,0,1-.08,3.24l-3.34,2.37a2.07,2.07,0,0,0-.27,3L524.44,87a2.12,2.12,0,0,1,.12,2.67l-3.2,4.1a2,2,0,0,0-.34,1.8l1.79,6.5"/><path class="cls-37" d="M471.21,53.75l4.15.13a2.24,2.24,0,0,1,1.78,1l.72,1.08a2.21,2.21,0,0,0,2.31.95l2.93-.67a2.2,2.2,0,0,1,2.65,2.36l-.07.57a2.2,2.2,0,0,0,2.4,2.4l1.81-.18a2.22,2.22,0,0,1,2.4,1.95l0,.41a2.21,2.21,0,0,0,1.77,1.92c2.24.44,6.07,1.24,6.43,1.56s-.17,2.44-.61,4.08a2.15,2.15,0,0,0,1.38,2.52c2.17.79,5.38,2.14,5.07,3.1a31.68,31.68,0,0,1-3.54,5.16,2.08,2.08,0,0,0,.95,3.15l3.25,1.4a2.09,2.09,0,0,1,1,3.09l-2.38,3.33a2.07,2.07,0,0,0,.74,3l3.9,2.29a2.12,2.12,0,0,1,1,2.48l-1.68,4.92a2,2,0,0,0,.27,1.82l3.82,5.55"/><path class="cls-37" d="M481,43.4l3.88,1.48a2.24,2.24,0,0,1,1.36,1.53l.32,1.26a2.21,2.21,0,0,0,1.87,1.65l3,.32a2.2,2.2,0,0,1,1.73,3.1l-.26.52a2.2,2.2,0,0,0,1.48,3.06l1.77.42a2.22,2.22,0,0,1,1.63,2.63l-.1.4a2.21,2.21,0,0,0,1,2.39c2,1.15,5.33,3.16,5.57,3.58s-1,2.25-1.91,3.66a2.15,2.15,0,0,0,.48,2.83c1.79,1.46,4.39,3.79,3.78,4.6a31.68,31.68,0,0,1-5,3.72,2.08,2.08,0,0,0-.14,3.28l2.61,2.39a2.09,2.09,0,0,1-.08,3.24l-3.34,2.37a2.07,2.07,0,0,0-.27,3l2.94,3.44a2.12,2.12,0,0,1,.12,2.67l-3.2,4.1a2,2,0,0,0-.34,1.8l1.79,6.5"/><path class="cls-37" d="M463.23,64.28l4.15.13a2.24,2.24,0,0,1,1.78,1l.72,1.08a2.21,2.21,0,0,0,2.31.95l2.93-.67a2.2,2.2,0,0,1,2.65,2.36l-.07.57a2.2,2.2,0,0,0,2.4,2.4l1.81-.18a2.22,2.22,0,0,1,2.4,1.95l0,.41a2.21,2.21,0,0,0,1.77,1.92c2.24.44,6.07,1.24,6.43,1.56s-.17,2.44-.61,4.08a2.15,2.15,0,0,0,1.38,2.52c2.17.79,5.38,2.14,5.07,3.1a31.68,31.68,0,0,1-3.54,5.16,2.08,2.08,0,0,0,.95,3.15l3.25,1.4a2.09,2.09,0,0,1,1,3.09l-2.38,3.33a2.07,2.07,0,0,0,.74,3l3.9,2.29a2.12,2.12,0,0,1,1,2.48l-1.68,4.92a2,2,0,0,0,.27,1.82l3.82,5.55"/><path class="cls-37" d="M461.93,80.35l3.71-1.85a2.24,2.24,0,0,1,2,0l1.14.61a2.21,2.21,0,0,0,2.48-.26l2.26-2a2.2,2.2,0,0,1,3.45.83l.21.54a2.2,2.2,0,0,0,3.25,1l1.51-1a2.22,2.22,0,0,1,3,.58l.23.34a2.21,2.21,0,0,0,2.47.85c2.18-.67,5.93-1.78,6.41-1.67s1,2.23,1.4,3.88a2.15,2.15,0,0,0,2.41,1.57c2.29-.33,5.76-.66,5.94.33a31.68,31.68,0,0,1-.67,6.22,2.08,2.08,0,0,0,2.32,2.32l3.52-.3a2.09,2.09,0,0,1,2.33,2.26l-.52,4.06a2.07,2.07,0,0,0,2.05,2.26l4.52.17a2.12,2.12,0,0,1,2,1.72l.85,5.13a2,2,0,0,0,1.1,1.47l6,3.08"/><path class="cls-37" d="M478.2,58.26l3.88,1.48a2.24,2.24,0,0,1,1.36,1.53l.32,1.26a2.21,2.21,0,0,0,1.87,1.65l3,.32a2.2,2.2,0,0,1,1.73,3.1l-.26.52a2.2,2.2,0,0,0,1.48,3.06l1.77.42A2.22,2.22,0,0,1,495,74.22l-.1.4a2.21,2.21,0,0,0,1,2.39c2,1.15,5.33,3.16,5.57,3.58s-1,2.25-1.91,3.66a2.15,2.15,0,0,0,.48,2.83c1.79,1.46,4.39,3.79,3.78,4.6a31.68,31.68,0,0,1-5,3.72,2.08,2.08,0,0,0-.14,3.28l2.61,2.39a2.09,2.09,0,0,1-.08,3.24l-3.34,2.37a2.07,2.07,0,0,0-.27,3"/><path class="cls-37" d="M541.71,40.42l-4.15-.08a2.24,2.24,0,0,0-1.83.91l-.77,1a2.21,2.21,0,0,1-2.35.84l-2.89-.81A2.2,2.2,0,0,0,527,44.56l0,.58a2.2,2.2,0,0,1-2.51,2.28l-1.8-.27A2.22,2.22,0,0,0,520.2,49l-.06.41a2.21,2.21,0,0,1-1.86,1.83c-2.26.33-6.12.94-6.5,1.25s.05,2.45.41,4.1a2.15,2.15,0,0,1-1.5,2.45c-2.21.69-5.48,1.88-5.22,2.86a31.68,31.68,0,0,0,3.28,5.33,2.08,2.08,0,0,1-1.1,3.1l-3.31,1.24a2.09,2.09,0,0,0-1.14,3L505.42,78a2.07,2.07,0,0,1-.88,2.93l-4,2.1a2.12,2.12,0,0,0-1.11,2.43l1.44,5a2,2,0,0,1-.36,1.8l-4.09,5.36"/><path class="cls-37" d="M566.07,57.43l-4.15-.09a2.24,2.24,0,0,0-1.83.9l-.77,1a2.21,2.21,0,0,1-2.36.83l-2.89-.82a2.2,2.2,0,0,0-2.77,2.22l0,.58a2.2,2.2,0,0,1-2.52,2.27l-1.8-.28a2.22,2.22,0,0,0-2.5,1.82l-.06.41a2.21,2.21,0,0,1-1.87,1.82c-2.26.32-6.12.92-6.51,1.22s0,2.45.39,4.11A2.15,2.15,0,0,1,535,75.89c-2.21.68-5.49,1.86-5.23,2.83A31.68,31.68,0,0,0,533,84.07a2.08,2.08,0,0,1-1.11,3.09l-3.32,1.23a2.09,2.09,0,0,0-1.15,3l2.21,3.45a2.07,2.07,0,0,1-.89,2.92l-4,2.08a2.12,2.12,0,0,0-1.12,2.42l1.42,5a2,2,0,0,1-.37,1.8l-4.11,5.35"/><path class="cls-37" d="M567.83,67.89,564,66.23a2.24,2.24,0,0,0-2,.14l-1.11.67a2.21,2.21,0,0,1-2.49-.13L556,65.06a2.2,2.2,0,0,0-3.4,1l-.18.55a2.2,2.2,0,0,1-3.19,1.15l-1.56-.94a2.22,2.22,0,0,0-3,.73l-.21.35a2.21,2.21,0,0,1-2.42,1c-2.21-.56-6-1.47-6.48-1.34s-.89,2.28-1.2,3.95A2.15,2.15,0,0,1,532,73.18c-2.3-.21-5.78-.36-5.91.64a31.68,31.68,0,0,0,1,6.18,2.08,2.08,0,0,1-2.2,2.44l-3.54-.12a2.09,2.09,0,0,0-2.21,2.37l.73,4A2.07,2.07,0,0,1,518,91.09l-4.51.4a2.12,2.12,0,0,0-2,1.82l-.59,5.16a2,2,0,0,1-1,1.52l-5.83,3.39"/><path class="cls-37" d="M568,81.29l-3.25-2.58a2.24,2.24,0,0,0-2-.39l-1.25.36a2.21,2.21,0,0,1-2.38-.77l-1.8-2.4a2.2,2.2,0,0,0-3.55.09l-.31.49a2.2,2.2,0,0,1-3.38.29l-1.26-1.31a2.22,2.22,0,0,0-3.09-.06l-.29.29a2.21,2.21,0,0,1-2.59.32c-2-1.11-5.43-3-5.92-3s-1.44,2-2.17,3.51a2.15,2.15,0,0,1-2.68,1c-2.17-.8-5.5-1.84-5.88-.9a31.68,31.68,0,0,0-.63,6.23,2.08,2.08,0,0,1-2.75,1.79l-3.39-1A2.09,2.09,0,0,0,516.68,85l-.33,4.08a2.07,2.07,0,0,1-2.48,1.79l-4.46-.77a2.12,2.12,0,0,0-2.35,1.26l-1.89,4.84a2,2,0,0,1-1.38,1.21l-6.51,1.78"/><path class="cls-37" d="M574.56,101l-2.4-3.38a2.24,2.24,0,0,0-1.82-.93H569a2.21,2.21,0,0,1-2.07-1.4l-1.06-2.81a2.2,2.2,0,0,0-3.43-.9L562,92a2.2,2.2,0,0,1-3.33-.66l-.85-1.61a2.22,2.22,0,0,0-3-.92l-.36.19a2.21,2.21,0,0,1-2.58-.41c-1.61-1.62-4.39-4.36-4.87-4.49s-1.94,1.5-3.06,2.77a2.15,2.15,0,0,1-2.86.25c-1.86-1.37-4.77-3.29-5.4-2.5a31.68,31.68,0,0,0-2.33,5.81,2.08,2.08,0,0,1-3.14,1l-3-1.93a2.09,2.09,0,0,0-3.12.89l-1.45,3.83a2.07,2.07,0,0,1-2.88,1l-4.07-2a2.12,2.12,0,0,0-2.61.55L510,97.92a2,2,0,0,1-1.66.78l-6.74-.1"/><path class="cls-37" d="M573.48,116.21l-2.4-3.38a2.24,2.24,0,0,0-1.82-.93H568a2.21,2.21,0,0,1-2.07-1.4l-1.06-2.81a2.2,2.2,0,0,0-3.43-.9l-.44.38a2.2,2.2,0,0,1-3.33-.66l-.85-1.61a2.22,2.22,0,0,0-3-.92l-.36.19a2.21,2.21,0,0,1-2.58-.41c-1.61-1.62-4.39-4.36-4.87-4.49s-1.94,1.5-3.06,2.77a2.15,2.15,0,0,1-2.86.25c-1.86-1.37-4.77-3.29-5.4-2.5a31.68,31.68,0,0,0-2.33,5.81,2.08,2.08,0,0,1-3.14,1l-3-1.93a2.09,2.09,0,0,0-3.12.89l-1.45,3.83a2.07,2.07,0,0,1-2.88,1l-4.07-2a2.12,2.12,0,0,0-2.61.55L509,113.08a2,2,0,0,1-1.66.78l-6.74-.1"/><path class="cls-37" d="M564.73,130.17l-2.4-3.38a2.24,2.24,0,0,0-1.82-.93h-1.3a2.21,2.21,0,0,1-2.07-1.4l-1.06-2.81a2.2,2.2,0,0,0-3.43-.9l-.44.38a2.2,2.2,0,0,1-3.33-.66l-.85-1.61a2.22,2.22,0,0,0-3-.92l-.36.19a2.21,2.21,0,0,1-2.58-.41c-1.61-1.62-4.39-4.36-4.87-4.49s-1.94,1.5-3.06,2.77a2.15,2.15,0,0,1-2.86.25c-1.86-1.37-4.77-3.29-5.4-2.5a31.68,31.68,0,0,0-2.33,5.81,2.08,2.08,0,0,1-3.14,1l-3-1.93a2.09,2.09,0,0,0-3.12.89l-1.45,3.83"/><circle class="cls-38" cx="519.06" cy="89.86" r="47.03" transform="translate(-7.72 89.21) rotate(-9.75)"/><circle class="cls-39" cx="545.36" cy="101.7" r="8.48" transform="translate(-9.35 93.84) rotate(-9.75)"/><circle class="cls-40" cx="545.97" cy="117.07" r="8.48" transform="translate(-11.94 94.16) rotate(-9.75)"/><circle class="cls-41" cx="553.12" cy="131.5" r="9.81" transform="translate(-14.28 95.58) rotate(-9.75)"/><circle class="cls-42" cx="560.26" cy="114.91" r="8.48" transform="translate(-11.37 96.55) rotate(-9.75)"/><circle class="cls-43" cx="562.93" cy="97.47" r="8.48" transform="translate(-8.38 96.75) rotate(-9.75)"/><circle class="cls-44" cx="549.72" cy="146.99" r="8.48" transform="translate(-16.95 95.23) rotate(-9.75)"/><circle class="cls-45" cx="481.17" cy="92.97" r="7.5" transform="translate(-8.8 82.84) rotate(-9.75)"/><circle class="cls-46" cx="477.93" cy="82.35" r="7.5" transform="translate(-7.04 82.14) rotate(-9.75)"/><circle class="cls-47" cx="476.02" cy="71.26" r="7.5" transform="translate(-5.19 81.65) rotate(-9.75)"/><circle class="cls-48" cx="481.93" cy="61.33" r="7.5" transform="translate(-3.43 82.51) rotate(-9.75)"/><circle class="cls-49" cx="489.62" cy="52.4" r="7.5" transform="translate(-1.8 83.69) rotate(-9.75)"/><circle class="cls-50" cx="502.75" cy="46.96" r="7.5" transform="translate(-0.69 85.83) rotate(-9.75)"/><circle class="cls-51" cx="513.85" cy="45.05" r="7.5" transform="translate(-0.21 87.68) rotate(-9.75)"/><circle class="cls-52" cx="524.07" cy="47.77" r="7.5" transform="translate(-0.52 89.45) rotate(-9.75)"/><circle class="cls-53" cx="534.55" cy="50.57" r="7.5" transform="translate(-0.84 91.27) rotate(-9.75)"/><circle class="cls-54" cx="545.11" cy="94.51" r="7.5" transform="translate(-8.13 93.69) rotate(-9.75)"/><circle class="cls-55" cx="548.08" cy="83.02" r="7.5" transform="translate(-6.14 94.03) rotate(-9.75)"/><circle class="cls-56" cx="547.33" cy="70.43" r="7.5" transform="translate(-4.02 93.72) rotate(-9.75)"/><circle class="cls-57" cx="542.45" cy="59.84" r="7.5" transform="translate(-2.3 92.74) rotate(-9.75)"/></g><g id="Слой_4" data-name="Слой 4"><polygon class="cls-58" points="408.04 281.82 435.13 286.29 458.95 225.87 417.57 217.9 408.04 281.82"/><rect class="cls-25" x="452" y="256.52" width="7.14" height="13.49" rx="3.57" ry="3.57" transform="translate(104.27 -128.45) rotate(18.09)"/><path class="cls-59" d="M376.44,289.84s1.64,68.18,7.2,101.52,19.15,41,34,38.23c18.52-3.41,15.17-47.13,12.6-64.82-4-27.49-14.93-77-14.93-77Z"/><path class="cls-60" d="M380,289.65c.9-1.39,3.56-23.37,7.72-35.87s13.73-19.07,20.65-23.34c8.09-5,23.86-12,30.37-12s17.33-2.08,16.83,2.08-17.24,6.34-19.63,6.64-10.3,5.71-10.3,5.71,32.7,3.43,33.3,9.68-36-1.77-36.31,3.27c-.24,3.65,28.87-.3,27.68,6.25s-32.14.6-33.34,3.27,19.74,3.2,19,7.94-24.15.77-24.75,5.23.21,19.48.21,19.48Z"/><path class="cls-61" d="M497.63,309.8S481.56,274.68,475,271.7s-16.07-8.33-16.07-8.33-3.57,3.27,0,6,17,17,11.31,17.26-8.53-7.14-12.9-9.82-4-5.38-2-7.44-1.49-5.36-3.57-4.46-8.93,6.25-8.93,11.61c-3.27,6-5.06,10.42-1.49,13.69-2,3.87-3.63,4.76-2,8s11.19,11.61,8.51,14S447,319,452.39,322s27.09,11.61,27.09,11.61Z"/><path class="cls-26" d="M590.82,211c-3.91-17.58-27.33-3.33-32,18s-61.19,80.76-61.19,80.76l-18.16,23.81S452.25,345,442.16,361.15c-13.23,21.12-32.55,57-50,90.49-19.31,37,7.46,81.34,49.21,81.53l206,.91a65.46,65.46,0,0,0,65-55.61c4.64-30.64,6.34-65.28-5.82-79.83-24-28.71-19.76-56.93-25.1-86.27s8-24.84-26.67-44.75S592.16,217,590.82,211Z"/></g><g id="_01" data-name="01"><rect class="cls-62" x="52.77" y="42.83" width="128.4" height="161.22" rx="6.31" ry="6.31"/><rect class="cls-25" x="59.59" y="49.75" width="114.76" height="147.39" rx="3.67" ry="3.67"/><rect class="cls-63" x="228.16" y="16.65" width="103.72" height="130.23" rx="5.09" ry="5.09"/><rect class="cls-25" x="235.32" y="24.36" width="89.4" height="114.81" rx="2.85" ry="2.85"/></g></svg>