<svg xmlns="http://www.w3.org/2000/svg" xmlns:xlink="http://www.w3.org/1999/xlink" viewBox="0 0 736 574.85"><defs><style>.cls-1{fill:url(#Безымянный_градиент_263);}.cls-2{fill:url(#Безымянный_градиент_5);}.cls-18,.cls-3,.cls-31,.cls-5{fill:none;stroke-miterlimit:10;}.cls-3{stroke-width:1.19px;stroke:url(#Безымянный_градиент_2);}.cls-4{fill:url(#Безымянный_градиент_17);}.cls-5{stroke-width:3.44px;stroke:url(#Безымянный_градиент_164);}.cls-6{fill:url(#Безымянный_градиент_5-2);}.cls-7{fill:url(#Безымянный_градиент_5-3);}.cls-8{fill:url(#Безымянный_градиент_5-4);}.cls-9{fill:url(#Безымянный_градиент_5-5);}.cls-10{fill:url(#Безымянный_градиент_5-6);}.cls-11{fill:url(#Безымянный_градиент_5-7);}.cls-12{fill:url(#Безымянный_градиент_18);}.cls-13{fill:url(#Безымянный_градиент_33);}.cls-14{fill:url(#Безымянный_градиент_33-2);}.cls-15{fill:url(#Безымянный_градиент_33-3);}.cls-16{fill:url(#Безымянный_градиент_17-2);}.cls-17{fill:url(#Безымянный_градиент_33-4);}.cls-18{stroke-width:2px;stroke:url(#Безымянный_градиент_33-5);}.cls-19{fill:url(#Безымянный_градиент_33-6);}.cls-20{fill:url(#Безымянный_градиент_17-3);}.cls-21{fill:url(#Безымянный_градиент_33-7);}.cls-22{fill:url(#Безымянный_градиент_11);}.cls-23{fill:url(#Безымянный_градиент_144);}.cls-24{fill:url(#Безымянный_градиент_170);}.cls-25{fill:#fff;}.cls-26{fill:#1f1844;}.cls-27{fill:url(#Безымянный_градиент_216);}.cls-28{fill:url(#Безымянный_градиент_40);}.cls-29{fill:url(#Безымянный_градиент_250);}.cls-30{fill:url(#Безымянный_градиент_250-2);}.cls-31{stroke:#fff;stroke-linecap:round;stroke-width:1.68px;}.cls-32{fill:url(#Безымянный_градиент_48);}.cls-33{fill:url(#Безымянный_градиент_157);}.cls-34{fill:url(#Безымянный_градиент_162);}.cls-35{fill:url(#Безымянный_градиент_157-2);}.cls-36{fill:url(#Безымянный_градиент_29);}.cls-37{fill:url(#Безымянный_градиент_29-2);}.cls-38{fill:url(#Безымянный_градиент_29-3);}.cls-39{fill:url(#Безымянный_градиент_170-2);}.cls-40{fill:url(#Безымянный_градиент_250-3);}.cls-41{fill:url(#Безымянный_градиент_157-3);}.cls-42{fill:url(#Безымянный_градиент_157-4);}.cls-43{fill:url(#Безымянный_градиент_170-3);}.cls-44{fill:url(#Безымянный_градиент_170-4);}</style><linearGradient id="Безымянный_градиент_263" x1="108.34" y1="291.91" x2="734.85" y2="291.91" gradientUnits="userSpaceOnUse"><stop offset="0" stop-color="#f0f2f5"/><stop offset="0.99" stop-color="#f5f7f8"/></linearGradient><linearGradient id="Безымянный_градиент_5" x1="115.93" y1="466" x2="84.34" y2="226.27" gradientUnits="userSpaceOnUse"><stop offset="0" stop-color="#1f1844"/><stop offset="0.99" stop-color="#3d3c99"/></linearGradient><linearGradient id="Безымянный_градиент_2" x1="114.34" y1="459.82" x2="86.55" y2="248.95" gradientUnits="userSpaceOnUse"><stop offset="0" stop-color="#3f3d9e"/><stop offset="0.99" stop-color="#423e9f"/></linearGradient><linearGradient id="Безымянный_градиент_17" x1="130.54" y1="377.82" x2="247.77" y2="350.88" gradientUnits="userSpaceOnUse"><stop offset="0.01" stop-color="#bbc0d9"/><stop offset="1" stop-color="#d6dbf8"/></linearGradient><linearGradient id="Безымянный_градиент_164" x1="-125.52" y1="511.35" x2="-35.81" y2="527.78" gradientTransform="translate(168.07 -126.78) rotate(-10.18)" gradientUnits="userSpaceOnUse"><stop offset="0" stop-color="#bac6d8"/><stop offset="0.99" stop-color="#d6dbf8"/></linearGradient><linearGradient id="Безымянный_градиент_5-2" x1="113.7" y1="382.73" x2="77.75" y2="347.41" xlink:href="#Безымянный_градиент_5"/><linearGradient id="Безымянный_градиент_5-3" x1="112.56" y1="412.42" x2="70.72" y2="397.85" xlink:href="#Безымянный_градиент_5"/><linearGradient id="Безымянный_градиент_5-4" x1="115.68" y1="382.64" x2="153.72" y2="352.7" xlink:href="#Безымянный_градиент_5"/><linearGradient id="Безымянный_градиент_5-5" x1="112.91" y1="412.47" x2="149.83" y2="394.78" xlink:href="#Безымянный_градиент_5"/><linearGradient id="Безымянный_градиент_5-6" x1="119.5" y1="440.26" x2="70.33" y2="434.38" xlink:href="#Безымянный_градиент_5"/><linearGradient id="Безымянный_градиент_5-7" x1="114.04" y1="443.71" x2="147.63" y2="423.18" xlink:href="#Безымянный_градиент_5"/><linearGradient id="Безымянный_градиент_18" x1="126.64" y1="305.2" x2="115.14" y2="352.2" gradientUnits="userSpaceOnUse"><stop offset="0.01" stop-color="#3d3c99"/><stop offset="1" stop-color="#1f1844"/></linearGradient><linearGradient id="Безымянный_градиент_33" x1="-1228.56" y1="684.3" x2="-1213.38" y2="684.3" gradientTransform="translate(466.53 -983.86) rotate(-45.37)" gradientUnits="userSpaceOnUse"><stop offset="0" stop-color="#e0e4eb"/><stop offset="0.99" stop-color="#f3f6fd"/></linearGradient><linearGradient id="Безымянный_градиент_33-2" x1="-2032.36" y1="471.66" x2="-2017.03" y2="471.66" gradientTransform="translate(260.39 -1665.02) rotate(-72.22)" xlink:href="#Безымянный_градиент_33"/><linearGradient id="Безымянный_градиент_33-3" x1="782.92" y1="-991.94" x2="798.12" y2="-991.94" gradientTransform="matrix(0.63, 0.78, -0.78, 0.63, -1135.42, 372.5)" xlink:href="#Безымянный_градиент_33"/><linearGradient id="Безымянный_градиент_17-2" x1="134.99" y1="410.9" x2="150.83" y2="394.64" xlink:href="#Безымянный_градиент_17"/><linearGradient id="Безымянный_градиент_33-4" x1="783.41" y1="-1236.9" x2="798.97" y2="-1236.9" gradientTransform="matrix(0.5, 0.87, -0.77, 0.45, -1218.15, 264.51)" xlink:href="#Безымянный_градиент_33"/><linearGradient id="Безымянный_градиент_33-5" x1="-234.85" y1="564.01" x2="-212.47" y2="564.01" gradientTransform="translate(208.71 -195.33) rotate(-13.38)" xlink:href="#Безымянный_градиент_33"/><linearGradient id="Безымянный_градиент_33-6" x1="-2453.55" y1="151.41" x2="-2437.63" y2="151.41" gradientTransform="matrix(0.04, -0.93, 1, 0.04, 40.29, -1842.68)" xlink:href="#Безымянный_градиент_33"/><linearGradient id="Безымянный_градиент_17-3" x1="135.34" y1="436.41" x2="151.16" y2="418.88" xlink:href="#Безымянный_градиент_17"/><linearGradient id="Безымянный_градиент_33-7" x1="779.54" y1="-1576.8" x2="796.77" y2="-1576.8" gradientTransform="matrix(0.35, 0.94, -0.74, 0.28, -1309.76, 118.02)" xlink:href="#Безымянный_градиент_33"/><linearGradient id="Безымянный_градиент_11" x1="129.1" y1="304.52" x2="117.61" y2="351.52" gradientUnits="userSpaceOnUse"><stop offset="0" stop-color="#e6eaf1"/><stop offset="0.99" stop-color="#f3f6fd"/></linearGradient><linearGradient id="Безымянный_градиент_144" x1="82.11" y1="510.74" x2="169.69" y2="490.62" gradientUnits="userSpaceOnUse"><stop offset="0.11" stop-color="#8988d5"/><stop offset="0.56" stop-color="#9d9ce8"/><stop offset="1" stop-color="#a7a5ee"/></linearGradient><linearGradient id="Безымянный_градиент_170" x1="303.78" y1="240.76" x2="379.86" y2="240.76" gradientUnits="userSpaceOnUse"><stop offset="0.01" stop-color="#bbbfd9"/><stop offset="1" stop-color="#d6dbf8"/></linearGradient><linearGradient id="Безымянный_градиент_216" x1="553.64" y1="525.72" x2="553.64" y2="248.62" gradientUnits="userSpaceOnUse"><stop offset="0" stop-color="#201f4f"/><stop offset="0.39" stop-color="#3d3c99"/><stop offset="1" stop-color="#403da0"/></linearGradient><linearGradient id="Безымянный_градиент_40" x1="640.67" y1="393.14" x2="665.86" y2="395.66" gradientUnits="userSpaceOnUse"><stop offset="0.11" stop-color="#343381"/><stop offset="0.56" stop-color="#3d3c99"/><stop offset="1" stop-color="#403da0"/></linearGradient><linearGradient id="Безымянный_градиент_250" x1="573.14" y1="303.25" x2="815.55" y2="303.25" gradientUnits="userSpaceOnUse"><stop offset="0" stop-color="#a7a5ee"/><stop offset="0.44" stop-color="#9d9ce8"/><stop offset="0.89" stop-color="#8988d5"/></linearGradient><linearGradient id="Безымянный_градиент_250-2" x1="462.63" y1="394.33" x2="621.15" y2="394.33" xlink:href="#Безымянный_градиент_250"/><linearGradient id="Безымянный_градиент_48" x1="566.58" y1="193.02" x2="524.24" y2="234.57" gradientUnits="userSpaceOnUse"><stop offset="0" stop-color="#a04400"/><stop offset="1" stop-color="#753200"/></linearGradient><linearGradient id="Безымянный_градиент_157" x1="578.87" y1="194.76" x2="464.86" y2="169.36" gradientUnits="userSpaceOnUse"><stop offset="0" stop-color="#a96e46"/><stop offset="1" stop-color="#ffd0b9"/></linearGradient><linearGradient id="Безымянный_градиент_162" x1="530.86" y1="203.6" x2="554" y2="216.45" gradientUnits="userSpaceOnUse"><stop offset="0" stop-color="#a96e46"/><stop offset="1" stop-color="#ffd0b9" stop-opacity="0"/></linearGradient><linearGradient id="Безымянный_градиент_157-2" x1="-3288.8" y1="755.36" x2="-3300.06" y2="766.41" gradientTransform="translate(3887.04 -445.25) rotate(2.53)" xlink:href="#Безымянный_градиент_157"/><linearGradient id="Безымянный_градиент_29" x1="827.25" y1="134.05" x2="955.61" y2="74.63" gradientTransform="matrix(-0.99, 0.17, 0.17, 0.99, 1405.06, -117.89)" gradientUnits="userSpaceOnUse"><stop offset="0.28" stop-color="#201f4f"/><stop offset="1" stop-color="#201f4f"/></linearGradient><linearGradient id="Безымянный_градиент_29-2" x1="603.38" y1="94.8" x2="515.51" y2="71.11" gradientTransform="matrix(1, 0, 0, 1, 0, 0)" xlink:href="#Безымянный_градиент_29"/><linearGradient id="Безымянный_градиент_29-3" x1="583.22" y1="88.49" x2="517.11" y2="70.67" gradientTransform="matrix(1, 0, 0, 1, 0, 0)" xlink:href="#Безымянный_градиент_29"/><linearGradient id="Безымянный_градиент_170-2" x1="427" y1="252.1" x2="477.9" y2="252.1" xlink:href="#Безымянный_градиент_170"/><linearGradient id="Безымянный_градиент_250-3" x1="395.4" y1="358.94" x2="451.2" y2="358.94" xlink:href="#Безымянный_градиент_250"/><linearGradient id="Безымянный_градиент_157-3" x1="398.94" y1="253.78" x2="477.9" y2="253.78" xlink:href="#Безымянный_градиент_157"/><linearGradient id="Безымянный_градиент_157-4" x1="457.69" y1="298.49" x2="516.59" y2="298.49" xlink:href="#Безымянный_градиент_157"/><linearGradient id="Безымянный_градиент_170-3" x1="71.73" y1="123.44" x2="200.13" y2="123.44" xlink:href="#Безымянный_градиент_170"/><linearGradient id="Безымянный_градиент_170-4" x1="247.11" y1="81.77" x2="350.83" y2="81.77" xlink:href="#Безымянный_градиент_170"/></defs><title>01</title><g id="Слой_1" data-name="Слой 1"><path class="cls-1" d="M713.45,304.4c-55-112.47-212.37-277.21-416.84-277.63-213.36-.44-234,211.17-119,270S124.46,428.9,244.67,502.56c121.66,74.56,381.67,67.56,445.67,9.56S737.22,353,713.45,304.4Z"/><path class="cls-2" d="M116.29,467.71s34.78-38.71,31.09-54,17.89-33.79,18.31-56c.48-25.17-13-18.44-17.62-29.2-6.9-16,8.46-30.08-14.76-36.18-15.85-4.17-27,4-25.55-15.65S102.1,232.82,89.4,224c-18.14-12.59-55.06-13.58-42.62,11.8,13.06,26.66,1.55,70.58-1.49,82.6C13.1,445.5,116.29,467.71,116.29,467.71Z"/><path class="cls-3" d="M77.49,250.15c4,32.81,45.13,85.24,26.48,120.28s9.62,89.28,9.62,89.28"/><path class="cls-4" d="M221.67,394.41c-22.59,8,1.87,37.2-22.83,50.36S142.48,464.6,141,458.21c-.1-.42-1.43-4.66-2.83-10.85-.32-1.43-.64-3-1-4.6-.08-.45-.17-.91-.26-1.38a125,125,0,0,1-1.87-14.95c0-.15,0-.31,0-.46-.12-2-.15-4-.12-6s.14-3.84.35-5.7c.73-7.11,2.77-13.66,6.93-18.36a19.66,19.66,0,0,1,3.61-3.23c17.16-11.94,24-6.14,23.89-23.78-.23-30.23,8.38-34.75,18.52-31.77s18.05,3.82,19.53-7.35-7.66-61,15.35-60.89c39.87.13,19.71,51,15.68,59.27C229.15,347.94,249.24,351,254,365.46S244.24,386.42,221.67,394.41Z"/><path class="cls-5" d="M136.6,501.65s-6.07-55.65,36.35-86.84c19.16-14.09,54.78-64.4,51.56-118.82"/><path class="cls-6" d="M77.14,346.86c5.27-8.93,43.14,27.92,36.51,36S72.12,355.38,77.14,346.86Z"/><path class="cls-7" d="M67.58,397.12c.76-10.41,46.48,4.55,44.14,14.83S66.86,407,67.58,397.12Z"/><path class="cls-8" d="M153.9,351.2c8.1,6.34-31.89,40.78-39,33.15S146.18,345.16,153.9,351.2Z"/><path class="cls-9" d="M149.7,394.59c6.81,7.69-31.8,27-37.6,18.32S143.22,387.26,149.7,394.59Z"/><path class="cls-10" d="M70.61,434.52c-2-9.55,48.41-4.05,48.84,5.78S72.52,443.62,70.61,434.52Z"/><path class="cls-11" d="M147.25,423.4c5.22,8.84-30.89,30.89-35.09,21.26S142.27,415,147.25,423.4Z"/><path class="cls-12" d="M127.33,303.9c10.18.74-3,52-13,49.64S117.63,303.19,127.33,303.9Z"/><path class="cls-13" d="M81,344.43c5.27-8.93,43.14,27.92,36.51,36S75.94,352.94,81,344.43Z"/><path class="cls-14" d="M70.62,395c.76-10.41,46.48,4.55,44.14,14.83S69.9,404.9,70.62,395Z"/><path class="cls-15" d="M155.44,348.91c8.1,6.34-31.89,40.78-39,33.15S147.72,342.87,155.44,348.91Z"/><path class="cls-16" d="M136.15,412.28c.7-7,2.66-13.42,6.65-18,4.83-1,8.89-.77,10.66,1.23C157.24,399.75,147,407.63,136.15,412.28Z"/><path class="cls-17" d="M151.61,393c6.81,7.69-31.8,27-37.6,18.32S145.13,385.63,151.61,393Z"/><path class="cls-18" d="M117,341.44s1.16,26.63-2.37,49.87,5.37,62.58,19.85,75.15"/><path class="cls-19" d="M70.61,432.7c-2-9.55,48.41-4.05,48.84,5.78S72.52,441.8,70.61,432.7Z"/><path class="cls-20" d="M138,440.27c-.07-.44-.16-.9-.25-1.35A125.45,125.45,0,0,1,136,424.23c0-.15,0-.3,0-.46,8.23-4.55,17-6.85,19.34-2.91C158.2,425.83,148.13,434.93,138,440.27Z"/><path class="cls-21" d="M153.42,417.09c5.22,8.84-30.89,30.89-35.09,21.26S148.44,408.67,153.42,417.09Z"/><path class="cls-22" d="M129.79,303.22c10.18.74-3,52-13,49.64S120.1,302.52,129.79,303.22Z"/><path class="cls-23" d="M138.53,549.2H107.2a28.21,28.21,0,0,1-28-24.44L71.47,467.1a6.51,6.51,0,0,1,6.46-7.38H167.8a6.51,6.51,0,0,1,6.46,7.38l-7.77,57.66A28.21,28.21,0,0,1,138.53,549.2Z"/><rect class="cls-24" x="303.78" y="189.61" width="76.08" height="102.3" rx="3.87" ry="3.87"/><rect class="cls-25" x="310.16" y="197.16" width="63.32" height="87.21" rx="2.09" ry="2.09"/></g><g id="Слой_2" data-name="Слой 2"><path class="cls-26" d="M589.65,208.68S485.6,227.75,446.13,240.76,302.77,461,299,497s122.62,15.67,122.62,15.67S590.47,215.35,589.65,208.68Z"/><path class="cls-27" d="M649.36,489.66c-4.38,32.39-52,37-107.5,38.74-1.68.84-62.9.47-91.41-9.13l1-219.34c.07-18.52,7.92-49.09,34.94-49.54,45.38-.75,129.55-7.67,162.51,2.51,7.53,27.06,13,57,.47,135.13C642.19,432.79,651.48,474.12,649.36,489.66Z"/><path class="cls-28" d="M636.87,266.51c10,30.18,8.79,47.68-4.62,96.51-22.35,81.36,14.33,123.12-63.19,164.15,47-2.68,76.57-9.93,80.3-37.5,2.12-15.55-7.17-56.87,0-101.62,9.25-57.58,26.51-104.63,3.56-132.44C646.57,247.91,633.48,256.31,636.87,266.51Z"/><path class="cls-29" d="M649.37,333c-11.84,2-48.38,6.87-59.81,1.78,1.19,11.32,2.41,31.38,2.41,31.38s-111.2.16-147.8,14.15c0-1.19-7.36-59.68-7.6-60.06.81-6.78,8.9-34.84,23.81-57.88C473,243,490.85,234.13,523.13,229.54l42.74-3s42.54-4.5,62.18,16.93S649.37,333,649.37,333Z"/><polygon class="cls-30" points="604.8 425.65 462.63 410.04 462.63 363.02 621.14 376.26 604.8 425.65"/><line class="cls-31" x1="589.65" y1="334.2" x2="585.67" y2="311.19"/><path class="cls-32" d="M522.84,233.42c14-4.34,32.16-13.7,43.54-37.62,0-.47-.07-.93-.11-1.37a69.21,69.21,0,0,1-.3-8.85c.12-.18.24-.37.34-.55-15.93,23.53-30.93,36-44.16,42.54l.39,3.22Z"/><path class="cls-33" d="M566.38,195.8c0-.47-.06-.92-.11-1.36-.08-.91-.14-2-.2-3.11a40.58,40.58,0,0,1-.1-5.75,4.08,4.08,0,0,0,.33-.55,53.42,53.42,0,0,0,6-12.74,17,17,0,0,0-1.19-12.48l0,0a13.69,13.69,0,0,0-6.95-6.66c-12.75-5.17-28.58-66.4-69.69-27.27-2.42-.23-14.32-2.38-19.65,2.92-4,4-2.37,24.21-2.37,24.22,1.5,6.17,4,11.79,4.48,17.47.65,7.72-3.07,20.27,2.27,33,7.62,18.21,26.67,23.82,38.47,24.28,1.13,0,2.19,0,3.17,0,.48,0,.91,0,1.34-.07l.4,3.23.41,4.13.38,3.66,1.14,12.74c14.44,6.47,33.49,1.19,43-12.34a30.13,30.13,0,0,0,2.79-5.69c-1.08-8.37-2.38-19.61-3.45-32.24C566.69,199.37,566.53,197.63,566.38,195.8Z"/><path class="cls-34" d="M522.54,230.8s31.44-9.26,44.3-29.73c-.15-1.69-.31-3.44-.46-5.26,0-.47-.06-.92-.11-1.36-.08-.91-.14-2-.2-3.11-16.77,19.07-31.91,30.13-45.27,36.31.48,0,.91,0,1.34-.07Z"/><path class="cls-35" d="M560.05,164.08s3.59-6.1,6.93-2-.53,11.9-.53,11.9Z"/><path class="cls-36" d="M466.47,160.65c1.83-3.15,12.34-28.57,17.67-26.79,24,8,38.88-4.68,57.79,5.06,2.92,1.5-5.53,16.11-.77,18.21,5.44,2.4,11,13.9,11,13.9s2.24-22.3,15.77-15.44c11.91-14.39,7.41-41.66.69-50.39C553.89,86,518.56,84.87,499.35,89.73,433.35,106.43,461.81,158.31,466.47,160.65Z"/><path class="cls-37" d="M576.81,81.19c3.38,38.76-24.81,32.73-42.57,32.73a32.15,32.15,0,0,1-32.15-32.15c0-17.76,39.05-5.91,45.05-35.58C550.66,28.78,575.67,68.16,576.81,81.19Z"/><circle class="cls-38" cx="536.97" cy="76.02" r="28.5"/></g><g id="Слой_4" data-name="Слой 4"><polygon class="cls-39" points="427 281.82 454.08 286.29 477.9 225.87 436.52 217.9 427 281.82"/><rect class="cls-25" x="470.95" y="256.52" width="7.14" height="13.49" rx="3.57" ry="3.57" transform="translate(105.21 -134.33) rotate(18.09)"/><path class="cls-40" d="M395.4,289.84S397,358,402.59,391.36s19.15,41,34,38.23c18.52-3.41,15.17-47.13,12.6-64.82-4-27.49-14.93-77-14.93-77Z"/><path class="cls-41" d="M398.94,289.65c.9-1.39,3.56-23.37,7.72-35.87s13.73-19.07,20.65-23.34c8.09-5,23.86-12,30.37-12s17.33-2.08,16.83,2.08-17.24,6.34-19.63,6.64-10.3,5.71-10.3,5.71,32.7,3.43,33.3,9.68-36-1.77-36.31,3.27c-.24,3.65,28.87-.3,27.68,6.25s-32.14.6-33.34,3.27,19.74,3.2,19,7.94-24.15.77-24.75,5.23.21,19.48.21,19.48Z"/><path class="cls-42" d="M516.59,309.8S500.51,274.68,494,271.7s-16.07-8.33-16.07-8.33-3.57,3.27,0,6,17,17,11.31,17.26-8.53-7.14-12.9-9.82-4-5.38-2-7.44-1.49-5.36-3.57-4.46-8.93,6.25-8.93,11.61c-3.27,6-5.06,10.42-1.49,13.69-2,3.87-3.63,4.76-2,8s11.19,11.61,8.51,14S466,319,471.35,322s27.09,11.61,27.09,11.61Z"/><path class="cls-26" d="M609.78,211c-3.91-17.58-27.33-3.33-32,18s-61.19,80.76-61.19,80.76l-18.16,23.81S471.2,345,461.11,361.15c-13.23,21.12-32.55,57-50,90.49-19.31,37,7.46,81.34,49.21,81.53l206,.91a65.46,65.46,0,0,0,65-55.61c4.64-30.64,6.34-65.28-5.82-79.83-24-28.71-19.76-56.93-25.1-86.27s8-24.84-26.67-44.75S611.11,217,609.78,211Z"/></g><g id="_01" data-name="01"><rect class="cls-43" x="71.73" y="42.83" width="128.4" height="161.22" rx="6.31" ry="6.31"/><rect class="cls-25" x="78.55" y="49.75" width="114.76" height="147.39" rx="3.67" ry="3.67"/><rect class="cls-44" x="247.11" y="16.65" width="103.72" height="130.23" rx="5.09" ry="5.09"/><rect class="cls-25" x="254.27" y="24.36" width="89.4" height="114.81" rx="2.85" ry="2.85"/></g></svg>